<?xml version="1.0" encoding="utf-8"?>
<!-- Generator: Adobe Illustrator 22.1.0, SVG Export Plug-In . SVG Version: 6.00 Build 0)  -->
<svg version="1.1" id="Layer_1" xmlns="http://www.w3.org/2000/svg" xmlns:xlink="http://www.w3.org/1999/xlink" x="0px" y="0px"
	 viewBox="0 0 200 200" style="enable-background:new 0 0 200 200;" xml:space="preserve">
<style type="text/css">
	.st0{fill:#0D9071;}
</style>
<g>
	<g id="f68Nhl.tif_2_">
		<g>
			<path class="st0" d="M0,88.3c4.8-2.5,10.2-2.2,15.3-3.2c4.7-0.9,7.4-7.4,4.5-11.3c-2.2-2.9-4.4-5.7-6.7-8.5
				c-1.6-1.9-1.7-3.7,0-5.6c4.1-4.7,8.4-9.2,13.3-13.2c2.2-1.8,4.1-1.7,6.3,0.1c2.1,1.8,4.6,3.2,6.5,5.2c2.8,2.9,5.5,3.2,9.1,1.3
				c2.4-1.2,3.6-2.3,3.7-5.1c0.2-3.7,1-7.4,1.7-11.1c0.4-2.6,1.8-3.8,4.6-3.7c5.7,0.1,11.4,0.1,17.1,0c2.7,0,4.1,1.2,4.4,3.8
				c0.4,3,1,6,1.3,9.1c0.3,4,1.6,6.5,5.9,7.7c2.3,0.6,3.7,0.8,5.6-0.7c2.9-2.4,6-4.5,9-6.8c2-1.6,3.7-1.6,5.6,0.1
				c4.3,4.1,8.7,8.2,12.6,12.7c2,2.4,2.2,4.6-0.1,6.9c-1.4,1.5-2.3,3.6-3.9,4.9c-4.7,3.9-3.3,8-1,12.5c0.8,1.6,2,1.7,3.3,1.9
				c3.8,0.6,7.7,1.3,11.5,1.7c3.1,0.3,4.2,2,4.1,5c-0.1,5.3-0.2,10.6,0,15.8c0.1,3.5-1.4,5-4.8,5.3c-3.7,0.3-7.4,1-11.1,1.7
				c-3.8,0.6-6.7,7.5-4.3,10.6c2.3,3,4.6,5.9,7,8.8c1.5,1.8,2,3.6,0.2,5.6c-4.1,4.7-8.4,9.3-13.2,13.3c-2.3,2-4.3,1.9-6.6-0.1
				c-2-1.7-4.3-3.1-6.2-5c-2.9-3-5.7-3.3-9.5-1.4c-2.3,1.2-3.3,2.3-3.5,4.8c-0.3,3.7-1,7.4-1.6,11.1c-0.4,2.7-1.8,4.1-4.8,4
				c-5.6-0.2-11.1-0.2-16.7,0c-3.2,0.1-4.5-1.5-4.8-4.4c-0.4-3.6-1-7.1-1.6-10.7c-0.8-5.1-7.2-7.5-11.3-4.4
				c-2.8,2.1-5.6,4.1-8.3,6.3c-2,1.7-3.9,1.8-5.9-0.1c-4.3-4.1-8.7-8.2-12.5-12.8c-1.9-2.3-2.1-4.3,0-6.6c1.5-1.7,2.6-3.7,4.2-5.2
				c3.6-3.3,4-6.6,1.6-10.9c-1.1-2-2.1-3.3-4.4-3.5c-3.7-0.5-7.4-1.2-11.1-1.7c-1.6-0.2-2.9-0.8-4-1.9C0,103.3,0,95.8,0,88.3z
				 M66.8,126.6c14.8,0,26.6-12,26.6-26.9c-0.1-14.7-11.8-26.4-26.6-26.4C51.9,73.3,40,85.1,40,100C40,114.8,51.9,126.7,66.8,126.6z
				"/>
			<path class="st0" d="M200,54.2c-3.8,2-8,2.1-12.1,2.6c-4.7,0.6-7.1,4.5-5.3,8.7c5,11.7,4.9,11.5-6,17.9c-2.9,1.7-4.7,1.5-6.5-1.2
				c-1.4-2-3.1-3.9-4.7-5.9c-3.4-4.4-7.6-4.5-11-0.1c-7.2,9.3-7.1,9.1-17.3,3.7c-3.9-2.1-4.3-4.3-2.7-7.8c1-2,1.7-4.1,2.6-6.1
				c2-4.7-0.3-8.7-5.4-9.2c-11.8-1.2-11.5-1.2-11.9-13c-0.1-4.5,1.6-6,5.5-6.2c2.1-0.1,4.1-0.6,6.2-0.8c5.5-0.6,7.8-4.3,5.6-9.4
				c-4.7-10.9-4.6-10.7,5.4-16.7c3.4-2,5.6-2.1,7.8,1.3c1.3,2,3,3.7,4.4,5.5c3.2,4.1,7.4,4,10.7-0.2c2.3-3,4.7-5.8,7.1-8.7
				c4.9,1.3,8.7,4.6,13.1,6.9c1.5,0.8,1,2.1,0.5,3.3c-1.2,3.1-2.3,6.2-3.6,9.3c-1.6,4,0.7,8.1,5,8.7c4.3,0.6,8.6,0.6,12.5,2.7
				C200,44.2,200,49.2,200,54.2z M160,60c7.3,0,13.2-5.8,13.3-13c0.1-7.4-5.9-13.6-13.3-13.6c-7.2,0-13.3,5.9-13.3,13.1
				C146.6,53.9,152.5,60,160,60z"/>
			<path class="st0" d="M145.9,191.6c-3.6-2.1-7-4.3-10.7-6.4c-1.7-0.9-2.1-2-1.5-3.7c1.1-2.8,2.1-5.7,3.3-8.5
				c2.2-5.3,0.1-9.1-5.7-9.7c-11.3-1.1-11.1-1.1-11.5-12.6c-0.2-4.8,1.6-6.5,5.9-6.7c2.1-0.1,4.1-0.6,6.2-0.8c4.9-0.6,7.3-4.5,5.3-9
				c-4.8-11.3-4.7-11.1,5.6-17.3c3.1-1.9,5.1-1.8,7.2,1.2c1.3,2,3,3.7,4.4,5.5c3.4,4.4,7.7,4.5,11,0.1c7.1-9.3,7-9.2,17.3-3.6
				c3.6,2,4.5,3.9,2.7,7.5c-1,2-1.7,4.1-2.6,6.1c-2.3,5.3,0,8.9,5.8,9.6c3.8,0.4,7.8,0.6,11.3,2.5c0,5,0,10,0,15
				c-3.5,1.9-7.4,2-11.2,2.5c-6.1,0.7-8.1,4.2-5.7,9.8c1,2.4,1.8,4.9,2.9,7.3c1.1,2.4,0.6,4-1.9,5.3c-3.4,1.7-6.6,3.9-9.9,5.9
				c-4.4-1.3-5.9-5.5-8.5-8.6c-3.7-4.4-7.5-4.4-11.3,0C151.8,186.1,150.3,190.3,145.9,191.6z M159.9,166.6c7.3,0,13.3-5.7,13.4-13
				c0.2-7.4-5.9-13.6-13.2-13.7c-7.2,0-13.3,5.8-13.4,13C146.5,160.5,152.5,166.6,159.9,166.6z"/>
		</g>
	</g>
</g>
</svg>
