<?xml version="1.0" encoding="utf-8"?>
<!-- Generator: Adobe Illustrator 23.0.0, SVG Export Plug-In . SVG Version: 6.00 Build 0)  -->
<svg version="1.1" id="Layer_1" xmlns="http://www.w3.org/2000/svg" xmlns:xlink="http://www.w3.org/1999/xlink" x="0px" y="0px"
	 viewBox="0 0 120 120" style="enable-background:new 0 0 120 120;" xml:space="preserve">
<style type="text/css">
	.st0{fill:#57BB6C;}
</style>
<g id="f68Nhl.tif_1_">
	<g>
		<path class="st0" d="M37,57.31c1.1-0.57,2.34-0.51,3.52-0.74c1.07-0.21,1.71-1.71,1.04-2.59c-0.5-0.66-1.02-1.31-1.55-1.95
			c-0.36-0.44-0.39-0.84-0.01-1.28c0.94-1.09,1.93-2.12,3.05-3.04c0.51-0.41,0.95-0.4,1.45,0.02c0.48,0.42,1.05,0.74,1.49,1.2
			c0.65,0.67,1.26,0.73,2.1,0.31c0.56-0.28,0.82-0.53,0.86-1.17c0.05-0.86,0.24-1.7,0.38-2.55c0.1-0.59,0.42-0.87,1.05-0.86
			c1.31,0.03,2.62,0.02,3.93,0c0.63-0.01,0.95,0.27,1.02,0.88c0.09,0.7,0.24,1.39,0.29,2.09c0.06,0.91,0.37,1.5,1.35,1.77
			c0.52,0.14,0.86,0.18,1.28-0.17c0.66-0.55,1.38-1.03,2.06-1.57c0.45-0.36,0.86-0.37,1.28,0.03c1,0.94,2,1.88,2.89,2.93
			c0.47,0.56,0.5,1.05-0.02,1.59c-0.33,0.34-0.54,0.82-0.9,1.12c-1.07,0.9-0.75,1.85-0.24,2.87c0.18,0.37,0.46,0.39,0.77,0.44
			c0.88,0.14,1.76,0.3,2.65,0.4c0.72,0.08,0.97,0.46,0.95,1.16c-0.03,1.21-0.04,2.43,0,3.64c0.03,0.81-0.32,1.15-1.1,1.23
			c-0.86,0.08-1.71,0.24-2.56,0.38c-0.88,0.14-1.53,1.72-0.99,2.44c0.52,0.69,1.05,1.36,1.6,2.03c0.35,0.42,0.45,0.82,0.05,1.28
			c-0.94,1.08-1.93,2.13-3.03,3.06c-0.53,0.45-1,0.44-1.52-0.02c-0.45-0.4-0.99-0.71-1.42-1.14c-0.67-0.68-1.31-0.77-2.18-0.33
			c-0.54,0.27-0.76,0.52-0.8,1.11c-0.06,0.86-0.24,1.71-0.37,2.56c-0.1,0.63-0.42,0.94-1.1,0.92c-1.28-0.04-2.55-0.04-3.83,0
			c-0.74,0.02-1.03-0.34-1.11-1.01c-0.1-0.82-0.23-1.64-0.37-2.46c-0.19-1.17-1.65-1.73-2.61-1.01c-0.64,0.48-1.29,0.94-1.91,1.45
			c-0.47,0.38-0.9,0.42-1.35-0.02c-0.99-0.95-2-1.88-2.88-2.94c-0.44-0.52-0.49-1-0.01-1.52c0.34-0.38,0.59-0.85,0.96-1.19
			c0.82-0.76,0.92-1.52,0.36-2.5c-0.26-0.47-0.49-0.75-1.02-0.81c-0.85-0.11-1.7-0.28-2.56-0.39c-0.37-0.05-0.67-0.18-0.92-0.44
			C37,60.76,37,59.03,37,57.31z M52.36,66.12c3.41-0.01,6.12-2.75,6.11-6.18c-0.02-3.38-2.72-6.07-6.11-6.08
			c-3.43-0.01-6.15,2.7-6.15,6.13C46.2,63.41,48.94,66.13,52.36,66.12z"/>
		<path class="st0" d="M83,49.45c-0.87,0.46-1.84,0.48-2.78,0.59c-1.07,0.13-1.63,1.04-1.22,2.01c1.14,2.68,1.12,2.65-1.37,4.11
			c-0.67,0.39-1.07,0.34-1.49-0.27c-0.33-0.47-0.72-0.89-1.07-1.35c-0.79-1.02-1.74-1.03-2.52-0.02c-1.65,2.15-1.63,2.1-3.97,0.84
			c-0.9-0.48-1-0.99-0.61-1.8c0.22-0.46,0.38-0.94,0.59-1.41c0.47-1.09-0.06-2-1.25-2.12c-2.71-0.28-2.65-0.28-2.74-3
			c-0.03-1.03,0.36-1.37,1.27-1.43c0.48-0.03,0.95-0.14,1.42-0.19c1.27-0.13,1.79-1,1.28-2.17c-1.08-2.5-1.06-2.46,1.24-3.85
			c0.78-0.47,1.28-0.48,1.79,0.3c0.3,0.45,0.68,0.84,1.01,1.27c0.74,0.94,1.71,0.92,2.46-0.04c0.53-0.68,1.09-1.33,1.64-1.99
			c1.13,0.29,2.01,1.05,3.02,1.58c0.34,0.18,0.22,0.49,0.11,0.76c-0.27,0.71-0.54,1.42-0.83,2.13c-0.37,0.91,0.17,1.87,1.14,1.99
			C81.1,45.52,82.1,45.53,83,46C83,47.15,83,48.3,83,49.45z M73.79,50.79c1.67,0,3.04-1.34,3.07-3c0.03-1.7-1.36-3.12-3.06-3.12
			c-1.65,0-3.05,1.36-3.07,3.01C70.71,49.39,72.08,50.79,73.79,50.79z"/>
		<path class="st0" d="M70.55,81.06c-0.82-0.49-1.62-1-2.45-1.47c-0.38-0.21-0.49-0.45-0.34-0.85c0.26-0.65,0.48-1.32,0.75-1.96
			c0.51-1.22,0.02-2.09-1.3-2.22c-2.61-0.26-2.55-0.26-2.64-2.9c-0.04-1.1,0.36-1.49,1.36-1.54c0.48-0.02,0.95-0.13,1.42-0.18
			c1.13-0.13,1.67-1.03,1.22-2.08c-1.11-2.59-1.09-2.56,1.29-3.98c0.72-0.43,1.18-0.41,1.65,0.28c0.3,0.45,0.68,0.84,1.02,1.27
			c0.79,1.02,1.76,1.03,2.52,0.02c1.64-2.15,1.61-2.11,3.98-0.83c0.82,0.45,1.04,0.9,0.62,1.72c-0.23,0.45-0.39,0.94-0.59,1.41
			c-0.52,1.22-0.01,2.05,1.33,2.21c0.88,0.1,1.79,0.13,2.59,0.57c0,1.15,0,2.3,0,3.45c-0.8,0.43-1.7,0.47-2.58,0.57
			c-1.4,0.16-1.87,0.96-1.32,2.26c0.23,0.55,0.42,1.13,0.66,1.68c0.25,0.56,0.14,0.92-0.44,1.22c-0.78,0.4-1.52,0.9-2.27,1.35
			c-1.01-0.3-1.36-1.26-1.96-1.97c-0.86-1.01-1.73-1.01-2.59,0C71.91,79.79,71.56,80.76,70.55,81.06z M73.77,75.32
			c1.67,0.01,3.05-1.32,3.09-2.99c0.04-1.7-1.35-3.13-3.04-3.14c-1.66-0.01-3.06,1.34-3.09,2.99C70.7,73.9,72.07,75.31,73.77,75.32z
			"/>
	</g>
</g>
</svg>
