<?xml version="1.0" encoding="utf-8"?>
<!-- Generator: Adobe Illustrator 22.1.0, SVG Export Plug-In . SVG Version: 6.00 Build 0)  -->
<svg version="1.1" id="Layer_1" xmlns="http://www.w3.org/2000/svg" xmlns:xlink="http://www.w3.org/1999/xlink" x="0px" y="0px"
	 viewBox="0 0 200 200" style="enable-background:new 0 0 200 200;" xml:space="preserve">
<style type="text/css">
	.st0{fill:#0D9071;}
</style>
<g>
	<g>
		<g>
			<path class="st0" d="M100,0C44.8,0,0,44.8,0,100c0,55.3,44.8,100,100,100s100-44.8,100-100C200,44.8,155.2,0,100,0z M110.7,154
				H92.5v-18h18.2V154z M117.2,104c-4.8,3.1-6.6,6.6-6.5,10.3V128l-18.2,0.1v-20.9c0-6.2,2.1-10.4,8-14.3l10.2-6.9
				c6.6-4.4,6.5-13.4,2.5-17.4c-3.6-3.5-9.6-5.5-16.1-4.2c-11.7,2.4-12.7,11.1-12.7,19.3V88H66.3c0-15.1,1.7-22,9.8-30.5
				c9-9.7,21.7-11.2,33.4-8.9c11.8,2.4,25.7,13.6,25.7,29.9C135.2,94.7,121.9,100.9,117.2,104z"/>
		</g>
	</g>
</g>
</svg>
