<?xml version="1.0" encoding="utf-8"?>
<!-- Generator: Adobe Illustrator 23.0.0, SVG Export Plug-In . SVG Version: 6.00 Build 0)  -->
<svg version="1.1" id="Layer_1" xmlns="http://www.w3.org/2000/svg" xmlns:xlink="http://www.w3.org/1999/xlink" x="0px" y="0px"
	 viewBox="0 0 120 120" style="enable-background:new 0 0 120 120;" xml:space="preserve">
<style type="text/css">
	.st0{fill:#57BB6C;}
</style>
<g>
	<g>
		<path class="st0" d="M60,37.5c-12.3-0.01-22.28,10.07-22.29,22.49C37.72,72.43,47.69,82.5,60,82.5
			c12.31,0,22.29-10.07,22.29-22.51C82.28,47.57,72.31,37.49,60,37.5z M62.38,72.15h-4.05V68.1h4.05V72.15z M63.83,60.89
			c-1.06,0.69-1.46,1.48-1.45,2.32v3.09l-4.05,0.02v-4.71c0-1.4,0.46-2.35,1.78-3.21l2.27-1.56c1.46-1,1.45-3.02,0.55-3.92
			c-0.8-0.78-2.14-1.23-3.58-0.95c-2.61,0.54-2.82,2.49-2.82,4.34v1h-4.05c0.01-3.4,0.39-4.94,2.19-6.87
			c2.01-2.18,4.84-2.53,7.45-2.01c2.62,0.54,5.73,3.06,5.73,6.72C67.85,58.81,64.89,60.2,63.83,60.89z"/>
	</g>
</g>
</svg>
