<?xml version="1.0" standalone="yes"?>
<svg xmlns="http://www.w3.org/2000/svg" width="1024" height="768">
<path style="fill:#ffffff; stroke:none;" d="M0 0L0 768L1024 768L1024 0L0 0z"/>
<path style="fill:#a4e6cd; stroke:none;" d="M453 132L453 133L458 133L453 132z"/>
<path style="fill:#51df9b; stroke:none;" d="M458 132.424C438.767 134.981 420.741 141.499 407.09 156.004C359.066 207.029 401.187 295.41 472 286.714C509.635 282.092 538.314 251.872 540.911 214C543.932 169.914 503.438 126.385 458 132.424z"/>
<path style="fill:#a4e6cd; stroke:none;" d="M469 132L469 133L474 133L469 132M447 133L447 134L450 134L447 133M477 133L477 134L480 134L477 133M443.667 134.333L444.333 134.667L443.667 134.333M482.667 134.333L483.333 134.667L482.667 134.333M440 135L441 136L440 135M486 135L487 136L486 135M437 136L438 137L437 136M489 136L490 137L489 136M434.667 137.333L435.333 137.667L434.667 137.333M491.667 137.333L492.333 137.667L491.667 137.333M432 138L433 139L432 138M494 138L495 139L494 138M430 139L431 140L430 139M496 139L497 140L496 139M428 140L429 141L428 140M498 140L499 141L498 140M426 141L427 142L426 141M500 141L501 142L500 141M424 142L425 143L424 142M502 142L503 143L502 142M422 143L423 144L422 143M504 143L505 144L504 143M421 144L422 145L421 144M505 144L506 145L505 144M419 145L420 146L419 145M507 145L508 146L507 145M418 146L419 147L418 146M508 146L509 147L508 146M415 148L416 149L415 148M511 148L512 149L511 148M414 149L415 150L414 149M512 149L513 150L512 149M513 150L514 151L513 150M408 154L409 155L408 154M522 159L523 160L522 159M403 160L404 161L403 160M523 160L524 161L523 160M402 161L403 162L402 161M524 161L525 162L524 161M401 162L402 163L401 162M526 164L527 165L526 164M399 165L400 166L399 165M527 165L528 166L527 165M528 167L529 168L528 167M397 168L398 169L397 168M396 170L397 171L396 170M530 170L531 171L530 170M531 172L532 173L531 172M394 173L395 174L394 173M532 174L533 175L532 174M393 175L394 176L393 175M533 176L534 177L533 176M392.333 177.667L392.667 178.333L392.333 177.667M534 178L535 179L534 178M391 180L392 181L391 180M535.333 180.667L535.667 181.333L535.333 180.667M390.333 182.667L390.667 183.333L390.333 182.667M536 183L537 184L536 183M608 183L608 184L613 184L608 183M601 184L602 185L601 184z"/>
<path style="fill:#51df9b; stroke:none;" d="M602.667 184.333L603.333 184.667L602.667 184.333z"/>
<path style="fill:#0dbd93; stroke:none;" d="M604 184.439C551.369 192.727 563.685 273.238 616 265.7C668.695 258.107 656.467 176.177 604 184.439z"/>
<path style="fill:#51df9b; stroke:none;" d="M616.667 184.333L617.333 184.667L616.667 184.333z"/>
<path style="fill:#a4e6cd; stroke:none;" d="M618 184L619 185L618 184M389.333 185.667L389.667 186.333L389.333 185.667M597 185L598 186L597 185z"/>
<path style="fill:#51df9b; stroke:none;" d="M598 185L599 186L598 185M621 185L622 186L621 185z"/>
<path style="fill:#a4e6cd; stroke:none;" d="M622 185L623 186L622 185M537 186L538 187L537 186M594 186L595 187L594 186z"/>
<path style="fill:#51df9b; stroke:none;" d="M595 186L596 187L595 186M624 186L625 187L624 186z"/>
<path style="fill:#a4e6cd; stroke:none;" d="M625 186L626 187L625 186M592 187L593 188L592 187z"/>
<path style="fill:#51df9b; stroke:none;" d="M593 187L594 188L593 187z"/>
<path style="fill:#a4e6cd; stroke:none;" d="M627 187L628 188L627 187M388.333 188.667L388.667 189.333L388.333 188.667M590 188L591 189L590 188M629 188L630 189L629 188M538.333 189.667L538.667 190.333L538.333 189.667M588 189L589 190L588 189z"/>
<path style="fill:#51df9b; stroke:none;" d="M589 189L590 190L589 189z"/>
<path style="fill:#a4e6cd; stroke:none;" d="M631 189L632 190L631 189z"/>
<path style="fill:#51df9b; stroke:none;" d="M587 190L588 191L587 190M632 190L633 191L632 190z"/>
<path style="fill:#a4e6cd; stroke:none;" d="M634 191L635 192L634 191M387 192L387 195L388 195L387 192M584 192L585 193L584 192M635 192L636 193L635 192M539.333 193.667L539.667 194.333L539.333 193.667z"/>
<path style="fill:#51df9b; stroke:none;" d="M583 193L584 194L583 193M636 193L637 194L636 193M582 194L583 195L582 194M581 195L582 196L581 195M580 196L581 197L580 196z"/>
<path style="fill:#a4e6cd; stroke:none;" d="M386 197L386 201L387 201L386 197z"/>
<path style="fill:#51df9b; stroke:none;" d="M579 197L580 198L579 197M640 197L641 198L640 197z"/>
<path style="fill:#a4e6cd; stroke:none;" d="M540 198L540 202L541 202L540 198z"/>
<path style="fill:#51df9b; stroke:none;" d="M578 198L579 199L578 198M641 198L642 199L641 198z"/>
<path style="fill:#a4e6cd; stroke:none;" d="M577 199L578 200L577 199M642 199L643 200L642 199M643 200L644 201L643 200z"/>
<path style="fill:#51df9b; stroke:none;" d="M575 202L576 203L575 202M644 202L645 203L644 202z"/>
<path style="fill:#a4e6cd; stroke:none;" d="M645 203L646 204L645 203M573 205L574 206L573 205M646 205L647 206L646 205M572 207L573 208L572 207M647 207L648 208L647 207M571 209L572 210L571 209M648 209L649 210L648 209z"/>
<path style="fill:#51df9b; stroke:none;" d="M571 210L572 211L571 210M648 210L649 211L648 210z"/>
<path style="fill:#a4e6cd; stroke:none;" d="M570 212L571 213L570 212M649 212L650 213L649 212z"/>
<path style="fill:#51df9b; stroke:none;" d="M570 213L571 214L570 213M649 213L650 214L649 213z"/>
<path style="fill:#a4e6cd; stroke:none;" d="M650.333 215.667L650.667 216.333L650.333 215.667M569 216L570 217L569 216M540 217L540 221L541 221L540 217z"/>
<path style="fill:#51df9b; stroke:none;" d="M569.333 217.667L569.667 218.333L569.333 217.667M650 217L651 218L650 217z"/>
<path style="fill:#a4e6cd; stroke:none;" d="M386 219L386 222L387 222L386 219M651 222L651 229L652 229L651 222M568 223L568 227L569 227L568 223M539.333 224.667L539.667 225.333L539.333 224.667M387.333 225.667L387.667 226.333L387.333 225.667M388.333 229.667L388.667 230.333L388.333 229.667M538 229L539 230L538 229z"/>
<path style="fill:#51df9b; stroke:none;" d="M569.333 231.667L569.667 232.333L569.333 231.667M650.333 231.667L650.667 232.333L650.333 231.667z"/>
<path style="fill:#a4e6cd; stroke:none;" d="M537.333 232.667L537.667 233.333L537.333 232.667M389 233L390 234L389 233M569 233L570 234L569 233M650.333 233.667L650.667 234.333L650.333 233.667M536.333 235.667L536.667 236.333L536.333 235.667M390 236L391 237L390 236z"/>
<path style="fill:#51df9b; stroke:none;" d="M570 236L571 237L570 236M649 236L650 237L649 236z"/>
<path style="fill:#a4e6cd; stroke:none;" d="M570 237L571 238L570 237M649 237L650 238L649 237M391.333 238.667L391.667 239.333L391.333 238.667M535 238L536 239L535 238z"/>
<path style="fill:#51df9b; stroke:none;" d="M571 239L572 240L571 239M648 239L649 240L648 239z"/>
<path style="fill:#a4e6cd; stroke:none;" d="M534.333 240.667L534.667 241.333L534.333 240.667M571 240L572 241L571 240M648 240L649 241L648 240M392 241L393 242L392 241z"/>
<path style="fill:#51df9b; stroke:none;" d="M572 241L573 242L572 241z"/>
<path style="fill:#a4e6cd; stroke:none;" d="M572 242L573 243L572 242M647 242L648 243L647 242M393 243L394 244L393 243M533 243L534 244L533 243M573 244L574 245L573 244M646 244L647 245L646 244M394 245L395 246L394 245M532 245L533 246L532 245z"/>
<path style="fill:#51df9b; stroke:none;" d="M574 245L575 246L574 245z"/>
<path style="fill:#a4e6cd; stroke:none;" d="M574 246L575 247L574 246M645 246L646 247L645 246M395 247L396 248L395 247M531 247L532 248L531 247z"/>
<path style="fill:#51df9b; stroke:none;" d="M575 247L576 248L575 247M644 247L645 248L644 247z"/>
<path style="fill:#a4e6cd; stroke:none;" d="M530 248L531 249L530 248M576 249L577 250L576 249M643 249L644 250L643 249M397 250L398 251L397 250M529 250L530 251L529 250M577 250L578 251L577 250M642 250L643 251L642 250M335 251L335 252L346 252L335 251z"/>
<path style="fill:#51df9b; stroke:none;" d="M578 251L579 252L578 251M641 251L642 252L641 251z"/>
<path style="fill:#a4e6cd; stroke:none;" d="M329.667 252.333L330.333 252.667L329.667 252.333z"/>
<path style="fill:#51df9b; stroke:none;" d="M331 252L332 253L331 252z"/>
<path style="fill:#0dbd93; stroke:none;" d="M332 252.465C275.481 262.637 290.716 351.334 347 341.385C354.155 340.12 361.111 337.763 367 333.39C404.682 305.408 378.285 244.134 332 252.465z"/>
<path style="fill:#51df9b; stroke:none;" d="M348.667 252.333L349.333 252.667L348.667 252.333z"/>
<path style="fill:#a4e6cd; stroke:none;" d="M350 252L351 253L350 252M398 252L399 253L398 252z"/>
<path style="fill:#51df9b; stroke:none;" d="M579 252L580 253L579 252z"/>
<path style="fill:#a4e6cd; stroke:none;" d="M326 253L327 254L326 253z"/>
<path style="fill:#51df9b; stroke:none;" d="M327 253L328 254L327 253M353 253L354 254L353 253z"/>
<path style="fill:#a4e6cd; stroke:none;" d="M354 253L355 254L354 253M399 253L400 254L399 253M527 253L528 254L527 253M323 254L324 255L323 254z"/>
<path style="fill:#51df9b; stroke:none;" d="M324 254L325 255L324 254M356 254L357 255L356 254z"/>
<path style="fill:#a4e6cd; stroke:none;" d="M321 255L322 256L321 255z"/>
<path style="fill:#51df9b; stroke:none;" d="M358 255L359 256L358 255z"/>
<path style="fill:#a4e6cd; stroke:none;" d="M359 255L360 256L359 255M400 255L401 256L400 255z"/>
<path style="fill:#51df9b; stroke:none;" d="M582 255L583 256L582 255z"/>
<path style="fill:#a4e6cd; stroke:none;" d="M319 256L320 257L319 256M361 256L362 257L361 256M401 256L402 257L401 256M525 256L526 257L525 256z"/>
<path style="fill:#51df9b; stroke:none;" d="M583 256L584 257L583 256M636 256L637 257L636 256z"/>
<path style="fill:#a4e6cd; stroke:none;" d="M317 257L318 258L317 257M524 257L525 258L524 257M584 257L585 258L584 257z"/>
<path style="fill:#51df9b; stroke:none;" d="M635 257L636 258L635 257M316 258L317 259L316 258M364 258L365 259L364 258z"/>
<path style="fill:#a4e6cd; stroke:none;" d="M585 258L586 259L585 258M634 258L635 259L634 258M314 259L315 260L314 259M366 259L367 260L366 259z"/>
<path style="fill:#51df9b; stroke:none;" d="M587 259L588 260L587 259M632 259L633 260L632 259M313 260L314 261L313 260z"/>
<path style="fill:#a4e6cd; stroke:none;" d="M367 260L368 261L367 260M404 260L405 261L404 260M588 260L589 261L588 260M631 260L632 261L631 260z"/>
<path style="fill:#51df9b; stroke:none;" d="M368 261L369 262L368 261z"/>
<path style="fill:#a4e6cd; stroke:none;" d="M405 261L406 262L405 261M521 261L522 262L521 261M590 261L591 262L590 261M629 261L630 262L629 261M310 262L311 263L310 262M406 262L407 263L406 262M520 262L521 263L520 262M592 262L593 263L592 262M627 262L628 263L627 262M309 263L310 264L309 263M407 263L408 264L407 263M519 263L520 264L519 263M594 263L595 264L594 263z"/>
<path style="fill:#51df9b; stroke:none;" d="M595 263L596 264L595 263M624 263L625 264L624 263z"/>
<path style="fill:#a4e6cd; stroke:none;" d="M625 263L626 264L625 263M308 264L309 265L308 264M408 264L409 265L408 264M518 264L519 265L518 264M597 264L598 265L597 264z"/>
<path style="fill:#51df9b; stroke:none;" d="M598 264L599 265L598 264M621 264L622 265L621 264z"/>
<path style="fill:#a4e6cd; stroke:none;" d="M622 264L623 265L622 264M307 265L308 266L307 265M409 265L410 266L409 265M517 265L518 266L517 265M600.667 265.333L601.333 265.667L600.667 265.333z"/>
<path style="fill:#51df9b; stroke:none;" d="M602.667 265.333L603.333 265.667L602.667 265.333M617 265L618 266L617 265z"/>
<path style="fill:#a4e6cd; stroke:none;" d="M618.667 265.333L619.333 265.667L618.667 265.333M306 266L307 267L306 266M410 266L411 267L410 266M516 266L517 267L516 266M607 266L607 267L613 267L607 266M411 267L412 268L411 267M515 267L516 268L515 267z"/>
<path style="fill:#51df9b; stroke:none;" d="M375 268L376 269L375 268z"/>
<path style="fill:#a4e6cd; stroke:none;" d="M412 268L413 269L412 268z"/>
<path style="fill:#51df9b; stroke:none;" d="M376 269L377 270L376 269M303 270L304 271L303 270z"/>
<path style="fill:#a4e6cd; stroke:none;" d="M377 270L378 271L377 270M511 270L512 271L511 270M302 271L303 272L302 271M416 271L417 272L416 271M510 271L511 272L510 271z"/>
<path style="fill:#51df9b; stroke:none;" d="M378 272L379 273L378 272z"/>
<path style="fill:#a4e6cd; stroke:none;" d="M417 272L418 273L417 272M301 273L302 274L301 273M379 273L380 274L379 273M507 273L508 274L507 273M420 274L421 275L420 274M506 274L507 275L506 274z"/>
<path style="fill:#51df9b; stroke:none;" d="M300 275L301 276L300 275z"/>
<path style="fill:#a4e6cd; stroke:none;" d="M380 275L381 276L380 275M422 275L423 276L422 275M504 275L505 276L504 275M423 276L424 277L423 276z"/>
<path style="fill:#51df9b; stroke:none;" d="M299 277L300 278L299 277z"/>
<path style="fill:#a4e6cd; stroke:none;" d="M381 277L382 278L381 277M425 277L426 278L425 277M501 277L502 278L501 277M427 278L428 279L427 278M499 278L500 279L499 278z"/>
<path style="fill:#51df9b; stroke:none;" d="M298 279L299 280L298 279z"/>
<path style="fill:#a4e6cd; stroke:none;" d="M382 279L383 280L382 279M429 279L430 280L429 279M497 279L498 280L497 279z"/>
<path style="fill:#51df9b; stroke:none;" d="M382 280L383 281L382 280z"/>
<path style="fill:#a4e6cd; stroke:none;" d="M431 280L432 281L431 280M495 280L496 281L495 280M297 281L298 282L297 281M433 281L434 282L433 281M492 281L493 282L492 281M679 281L679 282L689 282L679 281z"/>
<path style="fill:#51df9b; stroke:none;" d="M297 282L298 283L297 282z"/>
<path style="fill:#a4e6cd; stroke:none;" d="M383 282L384 283L383 282M436 282L437 283L436 282M490 282L491 283L490 282M570 282L570 283L575 283L570 282M672 282L672 283L675 283L672 282z"/>
<path style="fill:#51df9b; stroke:none;" d="M675 282.439C668.037 283.536 660.907 286.246 655 290.101C608.675 320.335 637.279 395.174 692 386.561C699.432 385.391 706.725 382.799 713 378.644C759.892 347.592 730.086 273.765 675 282.439z"/>
<path style="fill:#a4e6cd; stroke:none;" d="M693.667 282.333L694.333 282.667L693.667 282.333z"/>
<path style="fill:#51df9b; stroke:none;" d="M383 283L384 284L383 283z"/>
<path style="fill:#a4e6cd; stroke:none;" d="M439 283L440 284L439 283M487 283L488 284L487 283M564.667 283.333L565.333 283.667L564.667 283.333z"/>
<path style="fill:#51df9b; stroke:none;" d="M566 283.465C522.895 291.236 536.024 358.046 579 349.905C621.966 341.766 609.021 275.708 566 283.465z"/>
<path style="fill:#a4e6cd; stroke:none;" d="M579.667 283.333L580.333 283.667L579.667 283.333M669 283L670 284L669 283M698 283L699 284L698 283M296 284L297 285L296 284M442.667 284.333L443.333 284.667L442.667 284.333M483.667 284.333L484.333 284.667L483.667 284.333M561 284L562 285L561 284M583 284L584 285L583 284M666 284L667 285L666 284M701 284L702 285L701 284z"/>
<path style="fill:#51df9b; stroke:none;" d="M296.333 285.667L296.667 286.333L296.333 285.667z"/>
<path style="fill:#a4e6cd; stroke:none;" d="M384 285L385 286L384 285M446.667 285.333L447.333 285.667L446.667 285.333M479.667 285.333L480.333 285.667L479.667 285.333M558 285L559 286L558 285M586 285L587 286L586 285M663.667 285.333L664.333 285.667L663.667 285.333M704 285L705 286L704 285z"/>
<path style="fill:#51df9b; stroke:none;" d="M384.333 286.667L384.667 287.333L384.333 286.667z"/>
<path style="fill:#a4e6cd; stroke:none;" d="M450 286L450 287L454 287L450 286M473 286L473 287L477 287L473 286M556 286L557 287L556 286M588 286L589 287L588 286M661 286L662 287L661 286M706 286L707 287L706 286M460 287L460 288L467 288L460 287M659 287L660 288L659 287M708 287L709 288L708 287M295.333 288.667L295.667 289.333L295.333 288.667M553 288L554 289L553 288M591 288L592 289L591 288M657 288L658 289L657 288M710 288L711 289L710 288z"/>
<path style="fill:#51df9b; stroke:none;" d="M295 290L295 293L296 293L295 290z"/>
<path style="fill:#a4e6cd; stroke:none;" d="M385 290L385 293L386 293L385 290M550 290L551 291L550 290M594 290L595 291L594 290M654 290L655 291L654 290M713 290L714 291L713 290M549 291L550 292L549 291M595 291L596 292L595 291M548 292L549 293L548 292M596 292L597 293L596 292M651 292L652 293L651 292M716 292L717 293L716 292z"/>
<path style="fill:#51df9b; stroke:none;" d="M385 293L385 301L386 301L385 293z"/>
<path style="fill:#a4e6cd; stroke:none;" d="M547 293L548 294L547 293M597 293L598 294L597 293M650 293L651 294L650 293M717 293L718 294L717 293M546 294L547 295L546 294M598 294L599 295L598 294M649 294L650 295L649 294M544 297L545 298L544 297M600 297L601 298L600 297M543 298L544 299L543 298M542 300L543 301L542 300M602 300L603 301L602 300M643 300L644 301L643 300M724 300L725 301L724 300z"/>
<path style="fill:#51df9b; stroke:none;" d="M295.333 301.667L295.667 302.333L295.333 301.667z"/>
<path style="fill:#a4e6cd; stroke:none;" d="M385 301L385 304L386 304L385 301M642 301L643 302L642 301M725 301L726 302L725 301M541 302L542 303L541 302M603 302L604 303L603 302M641 302L642 303L641 302M295.333 303.667L295.667 304.333L295.333 303.667M540.333 304.667L540.667 305.333L540.333 304.667M640 304L641 305L640 304M727 304L728 305L727 304M604 305L605 306L604 305M639 305L640 306L639 305M728 305L729 306L728 305z"/>
<path style="fill:#51df9b; stroke:none;" d="M384 306L385 307L384 306M296 307L297 308L296 307z"/>
<path style="fill:#a4e6cd; stroke:none;" d="M384.333 307.667L384.667 308.333L384.333 307.667M539.333 307.667L539.667 308.333L539.333 307.667M605.333 307.667L605.667 308.333L605.333 307.667M638 307L639 308L638 307M729 307L730 308L729 307M296 308L297 309L296 308M637 309L638 310L637 309M730 309L731 310L730 309z"/>
<path style="fill:#51df9b; stroke:none;" d="M383 310L384 311L383 310z"/>
<path style="fill:#a4e6cd; stroke:none;" d="M297.333 311.667L297.667 312.333L297.333 311.667M383 311L384 312L383 311M492 311L492 312L499 312L492 311M636 311L637 312L636 311M731 311L732 312L731 311M488 312L489 313L488 312z"/>
<path style="fill:#51df9b; stroke:none;" d="M489 312L490 313L489 312z"/>
<path style="fill:#16776b; stroke:none;" d="M477 384C465.143 377.688 450.728 369.951 442.557 358.999C437.573 352.319 437.817 343.077 431.892 337.105C423.072 328.215 406.819 331.076 402.148 343C399.038 350.939 402.435 360.551 405.453 368C412.085 384.371 425.374 395.682 440 404.947C453.392 413.43 469.392 421.455 475.914 437C480.877 448.829 477 469.217 477 482L477 587C477 602.418 471.329 633.314 494 634.903C522.472 636.898 514 589.476 514 572L514 517C514 504.069 512.705 493.216 520.079 482C536.828 456.525 570.709 449.111 585.688 422C593.152 408.488 604.254 370.52 575 374.504C558.331 376.774 560.826 393.105 553.2 404C544.446 416.506 527.52 427.274 514 434L514 356C514 345.436 516.566 330.688 511.547 321.004C504.993 308.358 484.765 309.145 478.97 322.001C475.949 328.701 477 336.851 477 344L477 384z"/>
<path style="fill:#51df9b; stroke:none;" d="M501 312L502 313L501 312z"/>
<path style="fill:#a4e6cd; stroke:none;" d="M538 312L538 322L539 322L538 312M606 312L606 321L607 321L606 312z"/>
<path style="fill:#51df9b; stroke:none;" d="M298 313L299 314L298 313M382 313L383 314L382 313z"/>
<path style="fill:#a4e6cd; stroke:none;" d="M486 313L487 314L486 313M635 313L636 314L635 313M732 313L733 314L732 313M298 314L299 315L298 314z"/>
<path style="fill:#51df9b; stroke:none;" d="M485 314L486 315L485 314M505 314L506 315L505 314M381 315L382 316L381 315z"/>
<path style="fill:#a4e6cd; stroke:none;" d="M483 315L484 316L483 315M634 315L635 316L634 315M733 315L734 316L733 315M299 316L300 317L299 316M381 316L382 317L381 316M482 316L483 317L482 316M508 316L509 317L508 316z"/>
<path style="fill:#51df9b; stroke:none;" d="M380 317L381 318L380 317z"/>
<path style="fill:#a4e6cd; stroke:none;" d="M481 317L482 318L481 317M300 318L301 319L300 318M633 318L634 319L633 318M734 318L735 319L734 318z"/>
<path style="fill:#51df9b; stroke:none;" d="M379 319L380 320L379 319z"/>
<path style="fill:#a4e6cd; stroke:none;" d="M301 320L302 321L301 320M479 320L480 321L479 320M511 320L512 321L511 320z"/>
<path style="fill:#51df9b; stroke:none;" d="M302 321L303 322L302 321z"/>
<path style="fill:#a4e6cd; stroke:none;" d="M378 321L379 322L378 321M632.333 321.667L632.667 322.333L632.333 321.667M735.333 321.667L735.667 322.333L735.333 321.667z"/>
<path style="fill:#51df9b; stroke:none;" d="M377 322L378 323L377 322z"/>
<path style="fill:#a4e6cd; stroke:none;" d="M478 322L479 323L478 322M512 322L513 323L512 322M303 323L304 324L303 323z"/>
<path style="fill:#51df9b; stroke:none;" d="M304 324L305 325L304 324z"/>
<path style="fill:#a4e6cd; stroke:none;" d="M376 324L377 325L376 324M539.333 324.667L539.667 325.333L539.333 324.667M605.333 324.667L605.667 325.333L605.333 324.667z"/>
<path style="fill:#51df9b; stroke:none;" d="M305 325L306 326L305 325z"/>
<path style="fill:#a4e6cd; stroke:none;" d="M375 325L376 326L375 325M477 325L478 326L477 325M513 325L514 326L513 325z"/>
<path style="fill:#51df9b; stroke:none;" d="M374 326L375 327L374 326z"/>
<path style="fill:#0dbd93; stroke:none;" d="M477 326L478 327L477 326z"/>
<path style="fill:#51df9b; stroke:none;" d="M513 326L514 327L513 326z"/>
<path style="fill:#a4e6cd; stroke:none;" d="M631 326L631 330L632 330L631 326M736 326L736 330L737 330L736 326z"/>
<path style="fill:#51df9b; stroke:none;" d="M373 327L374 328L373 327z"/>
<path style="fill:#0dbd93; stroke:none;" d="M513 327L514 328L513 327z"/>
<path style="fill:#51df9b; stroke:none;" d="M372 328L373 329L372 328z"/>
<path style="fill:#a4e6cd; stroke:none;" d="M540 328L541 329L540 328M604 328L605 329L604 328z"/>
<path style="fill:#51df9b; stroke:none;" d="M371 329L372 330L371 329M370 330L371 331L370 330z"/>
<path style="fill:#a4e6cd; stroke:none;" d="M541 330L542 331L541 330M603 330L604 331L603 330z"/>
<path style="fill:#51df9b; stroke:none;" d="M311 331L312 332L311 331M369 331L370 332L369 331z"/>
<path style="fill:#a4e6cd; stroke:none;" d="M415 331L415 332L418 332L415 331z"/>
<path style="fill:#51df9b; stroke:none;" d="M418.667 331.333L419.333 331.667L418.667 331.333z"/>
<path style="fill:#a4e6cd; stroke:none;" d="M420 331L420 332L423 332L420 331M312 332L313 333L312 332M368 332L369 333L368 332M412 332L413 333L412 332M425 332L426 333L425 332M542 332L543 333L542 332M602 332L603 333L602 332M313 333L314 334L313 333M410 333L411 334L410 333M427 333L428 334L427 333z"/>
<path style="fill:#51df9b; stroke:none;" d="M315 334L316 335L315 334M365 334L366 335L365 334z"/>
<path style="fill:#a4e6cd; stroke:none;" d="M408 334L409 335L408 334M429 334L430 335L429 334M543 334L544 335L543 334M601 334L602 335L601 334M316 335L317 336L316 335z"/>
<path style="fill:#51df9b; stroke:none;" d="M363 335L364 336L363 335z"/>
<path style="fill:#a4e6cd; stroke:none;" d="M364 335L365 336L364 335M407 335L408 336L407 335M430 335L431 336L430 335M318 336L319 337L318 336M362 336L363 337L362 336z"/>
<path style="fill:#51df9b; stroke:none;" d="M406 336L407 337L406 336M431 336L432 337L431 336z"/>
<path style="fill:#a4e6cd; stroke:none;" d="M544 336L545 337L544 336M600 336L601 337L600 336z"/>
<path style="fill:#51df9b; stroke:none;" d="M320 337L321 338L320 337z"/>
<path style="fill:#a4e6cd; stroke:none;" d="M360 337L361 338L360 337z"/>
<path style="fill:#51df9b; stroke:none;" d="M405 337L406 338L405 337M432 337L433 338L432 337z"/>
<path style="fill:#a4e6cd; stroke:none;" d="M545 337L546 338L545 337M599 337L600 338L599 337M322 338L323 339L322 338z"/>
<path style="fill:#51df9b; stroke:none;" d="M357 338L358 339L357 338z"/>
<path style="fill:#a4e6cd; stroke:none;" d="M358 338L359 339L358 338M404 338L405 339L404 338z"/>
<path style="fill:#51df9b; stroke:none;" d="M433 338L434 339L433 338z"/>
<path style="fill:#a4e6cd; stroke:none;" d="M598 338L599 339L598 338M324 339L325 340L324 339z"/>
<path style="fill:#51df9b; stroke:none;" d="M325 339L326 340L325 339M355 339L356 340L355 339z"/>
<path style="fill:#a4e6cd; stroke:none;" d="M356 339L357 340L356 339M434 339L435 340L434 339M631 339L631 343L632 343L631 339M736 339L736 343L737 343L736 339M327 340L328 341L327 340z"/>
<path style="fill:#51df9b; stroke:none;" d="M328.667 340.333L329.333 340.667L328.667 340.333M351 340L352 341L351 340z"/>
<path style="fill:#a4e6cd; stroke:none;" d="M352.667 340.333L353.333 340.667L352.667 340.333M331.667 341.333L332.333 341.667L331.667 341.333z"/>
<path style="fill:#51df9b; stroke:none;" d="M333.667 341.333L334.333 341.667L333.667 341.333M346.667 341.333L347.333 341.667L346.667 341.333z"/>
<path style="fill:#a4e6cd; stroke:none;" d="M348.667 341.333L349.333 341.667L348.667 341.333M402 341L403 342L402 341M435 341L436 342L435 341M401 343L402 344L401 343M436 343L437 344L436 343M551 343L552 344L551 343M593 343L594 344L593 343z"/>
<path style="fill:#51df9b; stroke:none;" d="M401 344L402 345L401 344M436 344L437 345L436 344z"/>
<path style="fill:#a4e6cd; stroke:none;" d="M552 344L553 345L552 344M592 344L593 345L592 344M590 345L591 346L590 345M555 346L556 347L555 346M632.333 346.667L632.667 347.333L632.333 346.667M735.333 346.667L735.667 347.333L735.333 346.667M400 347L400 353L401 353L400 347M437 347L438 348L437 347M557 347L558 348L557 347M587 347L588 348L587 347z"/>
<path style="fill:#51df9b; stroke:none;" d="M437 348L438 349L437 348z"/>
<path style="fill:#a4e6cd; stroke:none;" d="M559.667 348.333L560.333 348.667L559.667 348.333M584 348L585 349L584 348M562.667 349.333L563.333 349.667L562.667 349.333M581.667 349.333L582.333 349.667L581.667 349.333M633.333 349.667L633.667 350.333L633.333 349.667M438.333 350.667L438.667 351.333L438.333 350.667M566 350L566 351L570 351L566 350M575 350L575 351L579 351L575 350M734 350L735 351L734 350M634.333 352.667L634.667 353.333L634.333 352.667M439 353L440 354L439 353M733 353L734 354L733 353z"/>
<path style="fill:#51df9b; stroke:none;" d="M401 355L402 356L401 355z"/>
<path style="fill:#a4e6cd; stroke:none;" d="M440 355L441 356L440 355M635 355L636 356L635 355M732 355L733 356L732 355M401 356L402 357L401 356z"/>
<path style="fill:#51df9b; stroke:none;" d="M440 356L441 357L440 356z"/>
<path style="fill:#a4e6cd; stroke:none;" d="M441 357L442 358L441 357M636 357L637 358L636 357M731 357L732 358L731 357M402.333 359.667L402.667 360.333L402.333 359.667M442 359L443 360L442 359M637 359L638 360L637 359M730 359L731 360L730 359M443 360L444 361L443 360M638 361L639 362L638 361M729 361L730 362L729 361z"/>
<path style="fill:#51df9b; stroke:none;" d="M403 362L404 363L403 362z"/>
<path style="fill:#a4e6cd; stroke:none;" d="M445 362L446 363L445 362M403 363L404 364L403 363M446 363L447 364L446 363M728 363L729 364L728 363M447 364L448 365L447 364M640 364L641 365L640 364M727 364L728 365L727 364M404.333 365.667L404.667 366.333L404.333 365.667z"/>
<path style="fill:#51df9b; stroke:none;" d="M448 365L449 366L448 365z"/>
<path style="fill:#a4e6cd; stroke:none;" d="M330 366L330 367L333 367L330 366z"/>
<path style="fill:#51df9b; stroke:none;" d="M333 366.439C324.801 367.72 316.893 370.351 310 375.029C263.838 406.358 295.096 478.802 349 469.715C355.998 468.535 363.085 465.833 369 461.895C413.213 432.459 386.363 358.105 333 366.439z"/>
<path style="fill:#a4e6cd; stroke:none;" d="M346 366L346 367L349 367L346 366M326.667 367.333L327.333 367.667L326.667 367.333M352.667 367.333L353.333 367.667L352.667 367.333M642 367L643 368L642 367M725 367L726 368L725 367M322.667 368.333L323.333 368.667L322.667 368.333M355.667 368.333L356.333 368.667L355.667 368.333M405 368L406 369L405 368M452 368L453 369L452 368M643 368L644 369L643 368M724 368L725 369L724 368M320 369L321 370L320 369M358 369L359 370L358 369M453 369L454 370L453 369M644 369L645 370L644 369M723 369L724 370L723 369M317.667 370.333L318.333 370.667L317.667 370.333M361 370L362 371L361 370M406 370L407 371L406 370M315 371L316 372L315 371M363 371L364 372L363 371M456 371L457 372L456 371M365 372L366 373L365 372M407 372L408 373L407 372z"/>
<path style="fill:#51df9b; stroke:none;" d="M457 372L458 373L457 372z"/>
<path style="fill:#a4e6cd; stroke:none;" d="M312 373L313 374L312 373M366 373L367 374L366 373M459 373L460 374L459 373M310 374L311 375L310 374M368 374L369 375L368 374M408 374L409 375L408 374z"/>
<path style="fill:#0dbd93; stroke:none;" d="M460 374L461 375L460 374z"/>
<path style="fill:#a4e6cd; stroke:none;" d="M572.667 374.333L573.333 374.667L572.667 374.333z"/>
<path style="fill:#51df9b; stroke:none;" d="M574 374L575 375L574 374z"/>
<path style="fill:#0dbd93; stroke:none;" d="M579 374L580 375L579 374z"/>
<path style="fill:#a4e6cd; stroke:none;" d="M580.667 374.333L581.333 374.667L580.667 374.333M649 374L650 375L649 374M718 374L719 375L718 374M309 375L310 376L309 375z"/>
<path style="fill:#51df9b; stroke:none;" d="M462 375L463 376L462 375z"/>
<path style="fill:#a4e6cd; stroke:none;" d="M569 375L570 376L569 375z"/>
<path style="fill:#51df9b; stroke:none;" d="M570 375L571 376L570 375M583 375L584 376L583 375z"/>
<path style="fill:#a4e6cd; stroke:none;" d="M584 375L585 376L584 375M650 375L651 376L650 375M717 375L718 376L717 375M371 376L372 377L371 376M409 376L410 377L409 376M464 376L465 377L464 376M651 376L652 377L651 376M716 376L717 377L716 376M306 377L307 378L306 377M372 377L373 378L372 377M566 377L567 378L566 377M587 377L588 378L587 377M714 377L715 378L714 377M305 378L306 379L305 378M373 378L374 379L373 378M467 378L468 379L467 378M654 378L655 379L654 378M713 378L714 379L713 378M411 379L412 380L411 379M469 379L470 380L469 379M656 379L657 380L656 379M711 379L712 380L711 379z"/>
<path style="fill:#51df9b; stroke:none;" d="M470 380L471 381L470 380z"/>
<path style="fill:#a4e6cd; stroke:none;" d="M657 380L658 381L657 380M710 380L711 381L710 380M472 381L473 382L472 381z"/>
<path style="fill:#51df9b; stroke:none;" d="M562 381L563 382L562 381z"/>
<path style="fill:#a4e6cd; stroke:none;" d="M659 381L660 382L659 381M708 381L709 382L708 381M413 382L414 383L413 382M561 382L562 383L561 382M592 382L593 383L592 382M661 382L662 383L661 382M706 382L707 383L706 382z"/>
<path style="fill:#51df9b; stroke:none;" d="M414 383L415 384L414 383z"/>
<path style="fill:#a4e6cd; stroke:none;" d="M475 383L476 384L475 383M663.667 383.333L664.333 383.667L663.667 383.333M703 383L704 384L703 383M299 384L300 385L299 384M379 384L380 385L379 384M560 384L561 385L560 384M593 384L594 385L593 384M666 384L667 385L666 384M700.667 384.333L701.333 384.667L700.667 384.333M298 385L299 386L298 385M380 385L381 386L380 385M669.667 385.333L670.333 385.667L669.667 385.333M697.667 385.333L698.333 385.667L697.667 385.333M381 386L382 387L381 386M559 386L560 387L559 386M594 386L595 387L594 386M673 386L673 387L676 387L673 386M692 386L692 387L695 387L692 386z"/>
<path style="fill:#51df9b; stroke:none;" d="M559 387L560 388L559 387z"/>
<path style="fill:#a4e6cd; stroke:none;" d="M680 387L680 388L688 388L680 387M296 388L297 389L296 388M382 388L383 389L382 388M295 389L296 390L295 389M383 389L384 390L383 389M595 389L595 396L596 396L595 389z"/>
<path style="fill:#0dbd93; stroke:none;" d="M421 390L422 391L421 390z"/>
<path style="fill:#a4e6cd; stroke:none;" d="M558 390L559 391L558 390M294 391L295 392L294 391M384 391L385 392L384 391M422 391L423 392L422 391z"/>
<path style="fill:#51df9b; stroke:none;" d="M558 391L559 392L558 391z"/>
<path style="fill:#a4e6cd; stroke:none;" d="M423 392L424 393L423 392M293 393L294 394L293 393M385 393L386 394L385 393M424 393L425 394L424 393M292.333 394.667L292.667 395.333L292.333 394.667M386 394L387 395L386 394M557 394L558 395L557 394z"/>
<path style="fill:#0dbd93; stroke:none;" d="M557 395L558 396L557 395z"/>
<path style="fill:#51df9b; stroke:none;" d="M428 396L429 397L428 396z"/>
<path style="fill:#a4e6cd; stroke:none;" d="M291 397L292 398L291 397M387 397L388 398L387 397M429 397L430 398L429 397M556 397L557 398L556 397M430 398L431 399L430 398z"/>
<path style="fill:#51df9b; stroke:none;" d="M594 398L595 399L594 398z"/>
<path style="fill:#a4e6cd; stroke:none;" d="M290 399L291 400L290 399M388 399L389 400L388 399M555 399L556 400L555 399M594.333 399.667L594.667 400.333L594.333 399.667M433 400L434 401L433 400z"/>
<path style="fill:#51df9b; stroke:none;" d="M555 400L556 401L555 400z"/>
<path style="fill:#a4e6cd; stroke:none;" d="M289 402L290 403L289 402M389 402L390 403L389 402z"/>
<path style="fill:#51df9b; stroke:none;" d="M436 402L437 403L436 402M554 402L555 403L554 402M593 402L594 403L593 402z"/>
<path style="fill:#a4e6cd; stroke:none;" d="M437 403L438 404L437 403M593 403L594 404L593 403z"/>
<path style="fill:#51df9b; stroke:none;" d="M439 404L440 405L439 404z"/>
<path style="fill:#a4e6cd; stroke:none;" d="M643 404L644 405L643 404z"/>
<path style="fill:#51df9b; stroke:none;" d="M644 404L644 405L648 405L644 404z"/>
<path style="fill:#0dbd93; stroke:none;" d="M648 404.464C608.276 408.004 592.784 463.067 631 482.19C638.731 486.059 647.492 486.594 656 485.907C706.299 481.844 698.149 399.994 648 404.464z"/>
<path style="fill:#51df9b; stroke:none;" d="M652 404L652 405L655 405L652 404z"/>
<path style="fill:#a4e6cd; stroke:none;" d="M655.667 404.333L656.333 404.667L655.667 404.333M288.333 405.667L288.667 406.333L288.333 405.667M390.333 405.667L390.667 406.333L390.333 405.667M552 405L553 406L552 405M638 405L639 406L638 405z"/>
<path style="fill:#51df9b; stroke:none;" d="M639 405L640 406L639 405M659 405L660 406L659 405z"/>
<path style="fill:#a4e6cd; stroke:none;" d="M660 405L661 406L660 405M442 406L443 407L442 406M592 406L593 407L592 406M635 406L636 407L635 406z"/>
<path style="fill:#51df9b; stroke:none;" d="M636 406L637 407L636 406M663 406L664 407L663 406M444 407L445 408L444 407z"/>
<path style="fill:#a4e6cd; stroke:none;" d="M633 407L634 408L633 407z"/>
<path style="fill:#51df9b; stroke:none;" d="M665 407L666 408L665 407z"/>
<path style="fill:#a4e6cd; stroke:none;" d="M666 407L667 408L666 407z"/>
<path style="fill:#51df9b; stroke:none;" d="M631 408L632 409L631 408z"/>
<path style="fill:#a4e6cd; stroke:none;" d="M668 408L669 409L668 408M391 409L391 413L392 413L391 409M447 409L448 410L447 409M548 409L549 410L548 409M591 409L592 410L591 409M629 409L630 410L629 409M670 409L671 410L670 409M287 410L287 414L288 414L287 410z"/>
<path style="fill:#51df9b; stroke:none;" d="M449 410L450 411L449 410z"/>
<path style="fill:#a4e6cd; stroke:none;" d="M547 410L548 411L547 410M627 410L628 411L627 410z"/>
<path style="fill:#51df9b; stroke:none;" d="M671 410L672 411L671 410z"/>
<path style="fill:#a4e6cd; stroke:none;" d="M450 411L451 412L450 411M546 411L547 412L546 411z"/>
<path style="fill:#51df9b; stroke:none;" d="M590 411L591 412L590 411M626 411L627 412L626 411z"/>
<path style="fill:#a4e6cd; stroke:none;" d="M673 411L674 412L673 411M452 412L453 413L452 412M545 412L546 413L545 412M590 412L591 413L590 412M624 412L625 413L624 412z"/>
<path style="fill:#51df9b; stroke:none;" d="M674 412L675 413L674 412M544 413L545 414L544 413z"/>
<path style="fill:#a4e6cd; stroke:none;" d="M623 413L624 414L623 413M455 414L456 415L455 414z"/>
<path style="fill:#51df9b; stroke:none;" d="M543 414L544 415L543 414z"/>
<path style="fill:#a4e6cd; stroke:none;" d="M589 414L590 415L589 414z"/>
<path style="fill:#51df9b; stroke:none;" d="M622 414L623 415L622 414M621 415L622 416L621 415z"/>
<path style="fill:#a4e6cd; stroke:none;" d="M678 415L679 416L678 415M458 416L459 417L458 416M540 416L541 417L540 416z"/>
<path style="fill:#51df9b; stroke:none;" d="M588 416L589 417L588 416M620 416L621 417L620 416z"/>
<path style="fill:#a4e6cd; stroke:none;" d="M679 416L680 417L679 416M539 417L540 418L539 417z"/>
<path style="fill:#51df9b; stroke:none;" d="M619 417L620 418L619 417M461 418L462 419L461 418M538 418L539 419L538 418M587 418L588 419L587 418z"/>
<path style="fill:#a4e6cd; stroke:none;" d="M618 418L619 419L618 418M462 419L463 420L462 419M617 419L618 420L617 419M463 420L464 421L463 420M535 420L536 421L535 420M586 420L587 421L586 420z"/>
<path style="fill:#51df9b; stroke:none;" d="M682 420L683 421L682 420z"/>
<path style="fill:#a4e6cd; stroke:none;" d="M464 421L465 422L464 421M533 421L534 422L533 421M683 421L684 422L683 421M465 422L466 423L465 422M532 422L533 423L532 422M585 422L586 423L585 422z"/>
<path style="fill:#51df9b; stroke:none;" d="M615 422L616 423L615 422z"/>
<path style="fill:#a4e6cd; stroke:none;" d="M287 423L287 427L288 427L287 423M466 423L467 424L466 423M530 423L531 424L530 423z"/>
<path style="fill:#51df9b; stroke:none;" d="M684 423L685 424L684 423z"/>
<path style="fill:#a4e6cd; stroke:none;" d="M391 424L391 427L392 427L391 424M467 424L468 425L467 424z"/>
<path style="fill:#51df9b; stroke:none;" d="M529 424L530 425L529 424z"/>
<path style="fill:#a4e6cd; stroke:none;" d="M685 424L686 425L685 424z"/>
<path style="fill:#0dbd93; stroke:none;" d="M468 425L469 426L468 425z"/>
<path style="fill:#a4e6cd; stroke:none;" d="M527 425L528 426L527 425M583 425L584 426L583 425M613 425L614 426L613 425M686 426L687 427L686 426M524 427L525 428L524 427M612 427L613 428L612 427M470 428L471 429L470 428M581 428L582 429L581 428M687 428L688 429L687 428z"/>
<path style="fill:#51df9b; stroke:none;" d="M471 429L472 430L471 429z"/>
<path style="fill:#a4e6cd; stroke:none;" d="M521 429L522 430L521 429z"/>
<path style="fill:#51df9b; stroke:none;" d="M580 429L581 430L580 429z"/>
<path style="fill:#a4e6cd; stroke:none;" d="M611 429L612 430L611 429M288.333 430.667L288.667 431.333L288.333 430.667M390.333 430.667L390.667 431.333L390.333 430.667z"/>
<path style="fill:#51df9b; stroke:none;" d="M611 430L612 431L611 430z"/>
<path style="fill:#a4e6cd; stroke:none;" d="M688 430L689 431L688 430M472 431L473 432L472 431M518 431L519 432L518 431z"/>
<path style="fill:#51df9b; stroke:none;" d="M688 431L689 432L688 431M473 432L474 433L473 432z"/>
<path style="fill:#a4e6cd; stroke:none;" d="M514 432L514 434L516 434L514 432z"/>
<path style="fill:#51df9b; stroke:none;" d="M517 432L518 433L517 432z"/>
<path style="fill:#a4e6cd; stroke:none;" d="M610 432L611 433L610 432M289.333 433.667L289.667 434.333L289.333 433.667z"/>
<path style="fill:#51df9b; stroke:none;" d="M610 433L611 434L610 433z"/>
<path style="fill:#a4e6cd; stroke:none;" d="M689 433L690 434L689 433M389 434L390 435L389 434M474 434L475 435L474 434z"/>
<path style="fill:#51df9b; stroke:none;" d="M689 434L690 435L689 434z"/>
<path style="fill:#0dbd93; stroke:none;" d="M475 435L476 436L475 435z"/>
<path style="fill:#a4e6cd; stroke:none;" d="M609 435L610 436L609 435M290.333 436.667L290.667 437.333L290.333 436.667z"/>
<path style="fill:#51df9b; stroke:none;" d="M609.333 436.667L609.667 437.333L609.333 436.667z"/>
<path style="fill:#a4e6cd; stroke:none;" d="M388 437L389 438L388 437M476 437L477 438L476 437M690 437L691 438L690 437M424.667 438.333L425.333 438.667L424.667 438.333z"/>
<path style="fill:#51df9b; stroke:none;" d="M426 438.468C395.578 443.631 403.661 488.414 434 483.787C462.489 479.442 454.397 433.65 426 438.468z"/>
<path style="fill:#a4e6cd; stroke:none;" d="M432 438L432 439L435 439L432 438z"/>
<path style="fill:#51df9b; stroke:none;" d="M571 438L572 439L571 438M690 438L690 441L691 441L690 438z"/>
<path style="fill:#a4e6cd; stroke:none;" d="M291 439L292 440L291 439M387 439L388 440L387 439M421 439L422 440L421 439M437 439L438 440L437 439M570 439L571 440L570 439M418 440L419 441L418 440M439 440L440 441L439 440M569 440L570 441L569 440M608 440L608 450L609 450L608 440M292 441L293 442L292 441M386 441L387 442L386 441M417 441L418 442L417 441M441 441L442 442L441 441M568 441L569 442L568 441M415 442L416 443L415 442M567 442L568 443L567 442M293 443L294 444L293 443M385 443L386 444L385 443M414 443L415 444L414 443M444 443L445 444L444 443M445 444L446 445L445 444M294 445L295 446L294 445M384 445L385 446L384 445M446 445L447 446L446 445z"/>
<path style="fill:#51df9b; stroke:none;" d="M563 445L564 446L563 445z"/>
<path style="fill:#a4e6cd; stroke:none;" d="M562 446L563 447L562 446M410 447L411 448L410 447M561 447L562 448L561 447M296 448L297 449L296 448M382 448L383 449L382 448M448 448L449 449L448 448z"/>
<path style="fill:#51df9b; stroke:none;" d="M559 448L560 449L559 448z"/>
<path style="fill:#a4e6cd; stroke:none;" d="M297 449L298 450L297 449M449 449L450 450L449 449M558 449L559 450L558 449M408 450L409 451L408 450z"/>
<path style="fill:#51df9b; stroke:none;" d="M690.333 450.667L690.667 451.333L690.333 450.667z"/>
<path style="fill:#a4e6cd; stroke:none;" d="M380 451L381 452L380 451M450 451L451 452L450 451M555 451L556 452L555 451M299 452L300 453L299 452M379 452L380 453L379 452M407.333 452.667L407.667 453.333L407.333 452.667M690.333 452.667L690.667 453.333L690.333 452.667M300 453L301 454L300 453M378 453L379 454L378 453M552 453L553 454L552 453z"/>
<path style="fill:#51df9b; stroke:none;" d="M609.333 453.667L609.667 454.333L609.333 453.667z"/>
<path style="fill:#a4e6cd; stroke:none;" d="M301 454L302 455L301 454M377 454L378 455L377 454M451 454L452 455L451 454z"/>
<path style="fill:#0dbd93; stroke:none;" d="M550 454L551 455L550 454z"/>
<path style="fill:#a4e6cd; stroke:none;" d="M302 455L303 456L302 455M376 455L377 456L376 455M406 455L406 458L407 458L406 455M549 455L550 456L549 455M609 455L610 456L609 455z"/>
<path style="fill:#51df9b; stroke:none;" d="M689.333 455.667L689.667 456.333L689.333 455.667z"/>
<path style="fill:#a4e6cd; stroke:none;" d="M303 456L304 457L303 456M375 456L376 457L375 456z"/>
<path style="fill:#51df9b; stroke:none;" d="M547 456L548 457L547 456z"/>
<path style="fill:#a4e6cd; stroke:none;" d="M304 457L305 458L304 457M374 457L375 458L374 457M452 457L452 465L453 465L452 457M546 457L547 458L546 457z"/>
<path style="fill:#51df9b; stroke:none;" d="M610 457L611 458L610 457z"/>
<path style="fill:#a4e6cd; stroke:none;" d="M689 457L690 458L689 457M305 458L306 459L305 458M373 458L374 459L373 458M544 458L545 459L544 458M610 458L611 459L610 458M543 459L544 460L543 459z"/>
<path style="fill:#51df9b; stroke:none;" d="M688 459L689 460L688 459z"/>
<path style="fill:#a4e6cd; stroke:none;" d="M308 460L309 461L308 460z"/>
<path style="fill:#51df9b; stroke:none;" d="M541 460L542 461L541 460M611 460L612 461L611 460z"/>
<path style="fill:#a4e6cd; stroke:none;" d="M688 460L689 461L688 460M309 461L310 462L309 461M369 461L370 462L369 461M540 461L541 462L540 461M611 461L612 462L611 461z"/>
<path style="fill:#51df9b; stroke:none;" d="M538 462L539 463L538 462z"/>
<path style="fill:#a4e6cd; stroke:none;" d="M687 462L688 463L687 462M312 463L313 464L312 463M366 463L367 464L366 463M537 463L538 464L537 463M612 463L613 464L612 463M314 464L315 465L314 464M364 464L365 465L364 464M686 464L687 465L686 464M316 465L317 466L316 465M362 465L363 466L362 465M406.333 465.667L406.667 466.333L406.333 465.667M534 465L535 466L534 465M613 465L614 466L613 465M318 466L319 467L318 466M360 466L361 467L360 466M533 466L534 467L533 466z"/>
<path style="fill:#51df9b; stroke:none;" d="M614 466L615 467L614 466z"/>
<path style="fill:#a4e6cd; stroke:none;" d="M685 466L686 467L685 466M320.667 467.333L321.333 467.667L320.667 467.333M357.667 467.333L358.333 467.667L357.667 467.333M451.333 467.667L451.667 468.333L451.333 467.667z"/>
<path style="fill:#51df9b; stroke:none;" d="M684 467L685 468L684 467z"/>
<path style="fill:#a4e6cd; stroke:none;" d="M323.667 468.333L324.333 468.667L323.667 468.333M354.667 468.333L355.333 468.667L354.667 468.333M615 468L616 469L615 468M327.667 469.333L328.333 469.667L327.667 469.333M350.667 469.333L351.333 469.667L350.667 469.333M407 469L408 470L407 469z"/>
<path style="fill:#51df9b; stroke:none;" d="M616 469L617 470L616 469z"/>
<path style="fill:#a4e6cd; stroke:none;" d="M683 469L684 470L683 469M332 470L332 471L336 471L332 470M343 470L343 471L348 471L343 470M450.333 470.667L450.667 471.333L450.333 470.667z"/>
<path style="fill:#51df9b; stroke:none;" d="M682 470L683 471L682 470z"/>
<path style="fill:#a4e6cd; stroke:none;" d="M408 471L409 472L408 471M617 471L618 472L617 471M618 472L619 473L618 472M409 473L410 474L409 473M619 473L620 474L619 473M448 474L449 475L448 474M525 474L526 475L525 474M620 474L621 475L620 474M410 475L411 476L410 475M524 475L525 476L524 475M621 475L622 476L621 475M411 476L412 477L411 476M622 476L623 477L622 476M412 477L413 478L412 477M623 477L624 478L623 477z"/>
<path style="fill:#51df9b; stroke:none;" d="M675 477L676 478L675 477z"/>
<path style="fill:#a4e6cd; stroke:none;" d="M413 478L414 479L413 478M522 478L523 479L522 478z"/>
<path style="fill:#51df9b; stroke:none;" d="M674 478L675 479L674 478z"/>
<path style="fill:#a4e6cd; stroke:none;" d="M414 479L415 480L414 479z"/>
<path style="fill:#51df9b; stroke:none;" d="M521 479L522 480L521 479M626 479L627 480L626 479z"/>
<path style="fill:#a4e6cd; stroke:none;" d="M673 479L674 480L673 479M442 480L443 481L442 480z"/>
<path style="fill:#51df9b; stroke:none;" d="M671 480L672 481L671 480z"/>
<path style="fill:#a4e6cd; stroke:none;" d="M417 481L418 482L417 481M440 481L441 482L440 481M520 481L521 482L520 481M629 481L630 482L629 481z"/>
<path style="fill:#51df9b; stroke:none;" d="M669 481L670 482L669 481z"/>
<path style="fill:#a4e6cd; stroke:none;" d="M670 481L671 482L670 481M419 482L420 483L419 482M438.667 482.333L439.333 482.667L438.667 482.333z"/>
<path style="fill:#51df9b; stroke:none;" d="M519 482L520 483L519 482z"/>
<path style="fill:#a4e6cd; stroke:none;" d="M631 482L632 483L631 482z"/>
<path style="fill:#51df9b; stroke:none;" d="M667 482L668 483L667 482z"/>
<path style="fill:#a4e6cd; stroke:none;" d="M668 482L669 483L668 482M421.667 483.333L422.333 483.667L421.667 483.333M436 483L437 484L436 483M633 483L634 484L633 483z"/>
<path style="fill:#51df9b; stroke:none;" d="M665 483L666 484L665 483z"/>
<path style="fill:#a4e6cd; stroke:none;" d="M666 483L667 484L666 483M425 484L425 485L434 485L425 484M518 484L519 485L518 484M635 484L636 485L635 484z"/>
<path style="fill:#51df9b; stroke:none;" d="M636 484L637 485L636 484M662 484L663 485L662 484z"/>
<path style="fill:#a4e6cd; stroke:none;" d="M663 484L664 485L663 484M639 485L640 486L639 485z"/>
<path style="fill:#51df9b; stroke:none;" d="M640 485L641 486L640 485M659 485L660 486L659 485z"/>
<path style="fill:#a4e6cd; stroke:none;" d="M660 485L661 486L660 485M517 486L518 487L517 486M643 486L643 487L646 487L643 486z"/>
<path style="fill:#51df9b; stroke:none;" d="M646 486L646 487L654 487L646 486z"/>
<path style="fill:#a4e6cd; stroke:none;" d="M654.667 486.333L655.333 486.667L654.667 486.333z"/>
<path style="fill:#51df9b; stroke:none;" d="M516 487L517 488L516 487M515 489L516 490L515 489M514 491L515 492L514 491z"/>
<path style="fill:#0dbd93; stroke:none;" d="M513 619L514 620L513 619z"/>
<path style="fill:#51df9b; stroke:none;" d="M477 620L478 621L477 620z"/>
<path style="fill:#a4e6cd; stroke:none;" d="M513.333 620.667L513.667 621.333L513.333 620.667M477 621L478 622L477 621z"/>
<path style="fill:#51df9b; stroke:none;" d="M512 623L513 624L512 623z"/>
<path style="fill:#a4e6cd; stroke:none;" d="M478 624L479 625L478 624M512 624L513 625L512 624M479 626L480 627L479 626z"/>
<path style="fill:#51df9b; stroke:none;" d="M480 627L481 628L480 627z"/>
<path style="fill:#a4e6cd; stroke:none;" d="M510 627L511 628L510 627z"/>
<path style="fill:#51df9b; stroke:none;" d="M484 631L485 632L484 631M506 631L507 632L506 631z"/>
<path style="fill:#a4e6cd; stroke:none;" d="M485 632L486 633L485 632M505 632L506 633L505 632M487 633L488 634L487 633M503 633L504 634L503 633M489 634L490 635L489 634z"/>
<path style="fill:#51df9b; stroke:none;" d="M490 634L491 635L490 634M500 634L501 635L500 634z"/>
<path style="fill:#a4e6cd; stroke:none;" d="M501 634L502 635L501 634M493 635L493 636L498 636L493 635z"/>
</svg>
