<?xml version="1.0" encoding="utf-8"?>
<!-- Generator: Adobe Illustrator 22.1.0, SVG Export Plug-In . SVG Version: 6.00 Build 0)  -->
<svg version="1.1" id="Layer_1" xmlns="http://www.w3.org/2000/svg" xmlns:xlink="http://www.w3.org/1999/xlink" x="0px" y="0px"
	 viewBox="0 0 200 200" style="enable-background:new 0 0 200 200;" xml:space="preserve">
<style type="text/css">
	.st0{fill:#0D9071;}
</style>
<g>
	<g>
		<g>
			<g>
				<path class="st0" d="M141.7,17.4C130.2,5.8,116.3,0,100,0S69.9,5.8,58.4,17.4s-17.2,25.6-17.2,42c0,9.9,4.9,26.4,14.7,49.6
					s19.6,44.3,29.4,63.3c9.8,19,14.7,28.3,14.7,27.7c1.5-2.9,3.6-6.8,6.3-11.7c2.7-4.9,7.4-14.3,14.1-27.9
					c6.7-13.7,12.6-26.2,17.7-37.7c5.1-11.4,9.8-23.3,14.1-35.5c4.3-12.3,6.5-21.5,6.5-27.7C158.8,43,153.1,29,141.7,17.4z
					 M112.6,71.9c-3.6,3.7-7.8,5.5-12.8,5.5c-5,0-9.2-1.8-12.8-5.5c-3.6-3.7-5.4-8-5.4-13.1s1.8-9.4,5.4-12.9
					c3.6-3.5,7.8-5.3,12.8-5.3c5,0,9.2,1.7,12.8,5.3c3.6,3.5,5.4,7.8,5.4,12.9S116.2,68.2,112.6,71.9z"/>
			</g>
		</g>
	</g>
</g>
</svg>
