<?xml version="1.0" encoding="utf-8"?>
<!-- Generator: Adobe Illustrator 23.0.0, SVG Export Plug-In . SVG Version: 6.00 Build 0)  -->
<svg version="1.1" id="Layer_1" xmlns="http://www.w3.org/2000/svg" xmlns:xlink="http://www.w3.org/1999/xlink" x="0px" y="0px"
	 viewBox="0 0 120 120" style="enable-background:new 0 0 120 120;" xml:space="preserve">
<style type="text/css">
	.st0{fill:#57BB6C;}
</style>
<g>
	<g>
		<g>
			<path class="st0" d="M69.78,40.58c-2.69-2.72-5.95-4.08-9.78-4.08s-7.09,1.36-9.78,4.08c-2.69,2.72-4.04,6.01-4.04,9.87
				c0,2.33,1.15,6.21,3.45,11.66c2.3,5.45,4.6,10.4,6.91,14.87c2.3,4.47,3.45,6.64,3.45,6.52c0.36-0.67,0.85-1.59,1.48-2.75
				c0.63-1.16,1.73-3.35,3.32-6.56c1.58-3.21,2.97-6.16,4.17-8.86c1.2-2.69,2.3-5.48,3.32-8.35c1.02-2.88,1.52-5.05,1.52-6.52
				C73.81,46.6,72.47,43.31,69.78,40.58z M62.96,53.39c-0.84,0.86-1.84,1.29-3,1.29c-1.17,0-2.17-0.43-3-1.29
				c-0.84-0.86-1.26-1.88-1.26-3.07c0-1.19,0.42-2.2,1.26-3.03c0.84-0.83,1.84-1.24,3-1.24c1.17,0,2.17,0.41,3,1.24
				c0.84,0.83,1.26,1.84,1.26,3.03C64.22,51.51,63.8,52.53,62.96,53.39z"/>
		</g>
	</g>
</g>
</svg>
