<svg width="450" height="504" viewBox="0 0 1934 2008" fill="none" xmlns="http://www.w3.org/2000/svg">
<g filter="url(#filter0_d_27_4)">
<path d="M762.996 80.6236C836.094 41.7631 872.644 22.3328 912.249 21.7522C913.851 21.7287 915.454 21.7287 917.057 21.7522C956.661 22.3328 993.211 41.763 1066.31 80.6236L1167.32 134.324C1249.52 178.025 1290.63 199.875 1313.93 237.263C1314.87 238.769 1315.78 240.29 1316.67 241.826C1338.74 279.95 1338.74 326.499 1338.74 419.597V482.225C1338.74 575.323 1338.74 621.871 1316.67 659.996C1315.78 661.532 1314.87 663.053 1313.93 664.559C1290.63 701.947 1249.52 723.797 1167.32 767.498L1066.31 821.198C993.211 860.059 956.661 879.489 917.057 880.07C915.454 880.093 913.851 880.093 912.249 880.07C872.644 879.489 836.094 860.059 762.996 821.198L661.984 767.498C579.78 723.797 538.679 701.947 515.378 664.559C514.439 663.053 513.525 661.532 512.635 659.996C490.561 621.871 490.561 575.323 490.561 482.225V419.597C490.561 326.499 490.561 279.95 512.635 241.826C513.525 240.29 514.439 238.769 515.378 237.263C538.679 199.875 579.78 178.025 661.984 134.324L762.996 80.6236Z" fill="#F3FBF7"/>
<path d="M555.906 634.942L555.905 634.941C549.704 624.231 545.436 610.779 543.08 586.828C540.616 561.798 540.561 529.746 540.561 482.225V419.597C540.561 372.076 540.616 340.024 543.08 314.993C545.436 291.043 549.704 277.591 555.905 266.88C556.524 265.813 557.159 264.755 557.811 263.708L515.53 237.358L557.812 263.708C564.358 253.205 574.232 243.122 594.274 229.799C615.219 215.874 643.494 200.78 685.454 178.473L786.466 124.773C823.793 104.929 848.923 91.6224 869.6 82.9085C889.367 74.5782 901.819 71.9104 912.982 71.7468C914.095 71.7305 915.21 71.7305 916.324 71.7468C927.487 71.9104 939.938 74.5782 959.705 82.9085C980.383 91.6224 1005.51 104.929 1042.84 124.773L1143.85 178.473C1185.81 200.78 1214.09 215.874 1235.03 229.799C1255.07 243.122 1264.95 253.205 1271.49 263.708C1272.15 264.755 1272.78 265.813 1273.4 266.881C1279.6 277.591 1283.87 291.043 1286.23 314.993C1288.69 340.024 1288.74 372.076 1288.74 419.597V482.225C1288.74 529.746 1288.69 561.798 1286.23 586.828C1283.87 610.779 1279.6 624.231 1273.4 634.941L1316.67 659.996L1273.4 634.941C1272.78 636.009 1272.15 637.067 1271.49 638.113C1264.95 648.617 1255.07 658.699 1235.03 672.023C1214.09 685.948 1185.81 701.042 1143.85 723.349L1042.84 777.049C1005.51 796.893 980.383 810.199 959.705 818.913C939.938 827.244 927.487 829.911 916.324 830.075C915.21 830.091 914.096 830.091 912.982 830.075C901.819 829.911 889.367 827.244 869.6 818.913C848.923 810.199 823.793 796.893 786.466 777.049L685.454 723.349C643.494 701.042 615.219 685.948 594.274 672.023C574.232 658.699 564.358 648.617 557.812 638.113L515.378 664.559L557.811 638.113C557.159 637.066 556.524 636.009 555.906 634.942Z" stroke="black" stroke-width="100"/>
</g>
<g filter="url(#filter1_d_27_4)">
<path d="M1243.11 363.17C1318.53 321.331 1356.23 300.412 1397.35 299.787C1399.01 299.762 1400.67 299.762 1402.33 299.787C1443.44 300.412 1481.15 321.331 1556.57 363.17L1590.09 381.769C1669.94 426.064 1709.86 448.211 1732.42 485.162C1733.33 486.651 1734.21 488.156 1735.08 489.674C1756.44 527.326 1756.44 572.98 1756.44 664.287V679.484C1756.44 770.791 1756.44 816.445 1735.08 854.097C1734.21 855.615 1733.33 857.119 1732.42 858.609C1709.86 895.56 1669.94 917.707 1590.09 962.001L1556.57 980.6C1481.15 1022.44 1443.44 1043.36 1402.33 1043.98C1400.67 1044.01 1399.01 1044.01 1397.35 1043.98C1356.23 1043.36 1318.53 1022.44 1243.11 980.6L1209.58 962.001C1129.74 917.707 1089.82 895.56 1067.26 858.609C1066.35 857.119 1065.46 855.615 1064.6 854.097C1043.23 816.445 1043.23 770.791 1043.23 679.484V664.287C1043.23 572.98 1043.23 527.326 1064.6 489.674C1065.46 488.156 1066.35 486.651 1067.26 485.162C1089.82 448.211 1129.74 426.064 1209.58 381.769L1243.11 363.17Z" fill="#F1FAF7"/>
<path d="M1735.08 489.674L1691.59 514.352C1690.99 513.296 1690.38 512.251 1689.74 511.216C1683.4 500.829 1673.82 490.79 1654.37 477.395C1634.05 463.394 1606.6 448.103 1565.84 425.492L1532.31 406.893C1493.81 385.531 1467.86 371.193 1446.48 361.803C1426.03 352.824 1413.15 349.957 1401.57 349.781C1400.42 349.764 1399.26 349.764 1398.11 349.781C1386.53 349.957 1373.64 352.824 1353.2 361.803C1331.82 371.193 1305.87 385.531 1267.36 406.893L1233.84 425.492C1193.08 448.103 1165.63 463.394 1145.3 477.395C1125.86 490.79 1116.27 500.829 1109.93 511.216C1109.3 512.251 1108.68 513.297 1108.09 514.352C1102.08 524.936 1097.95 538.185 1095.67 561.687C1093.29 586.254 1093.23 617.676 1093.23 664.287V679.484C1093.23 726.094 1093.29 757.516 1095.67 782.083C1097.95 805.585 1102.08 818.834 1108.09 829.418C1108.68 830.474 1109.3 831.519 1109.93 832.555C1116.27 842.942 1125.86 852.98 1145.3 866.375C1165.63 880.377 1193.08 895.667 1233.84 918.279L1267.36 936.878C1305.87 958.24 1331.82 972.578 1353.2 981.968C1373.64 990.947 1386.53 993.813 1398.11 993.989C1398.11 993.989 1398.11 993.989 1398.11 993.989L1397.35 1043.98C1399.01 1044.01 1400.67 1044.01 1402.33 1043.98L1735.08 489.674ZM1735.08 489.674L1691.59 514.352C1697.6 524.936 1701.73 538.185 1704.01 561.687C1706.39 586.254 1706.44 617.676 1706.44 664.287V679.484C1706.44 726.094 1706.39 757.517 1704.01 782.083C1701.73 805.585 1697.6 818.834 1691.59 829.418L1735.08 854.097L1691.59 829.419C1690.99 830.474 1690.38 831.52 1689.74 832.555C1683.4 842.942 1673.82 852.98 1654.37 866.375C1634.05 880.377 1606.6 895.667 1565.84 918.279L1532.31 936.878C1493.81 958.24 1467.86 972.578 1446.48 981.968C1426.03 990.947 1413.15 993.813 1401.57 993.989L1735.08 489.674Z" stroke="black" stroke-width="100"/>
</g>
<g filter="url(#filter2_d_27_4)">
<path d="M229.206 363.17C304.623 321.331 342.332 300.412 383.444 299.787C385.105 299.762 386.767 299.762 388.428 299.787C429.54 300.412 467.249 321.331 542.666 363.17L576.192 381.769C656.036 426.064 695.958 448.211 718.517 485.162C719.427 486.651 720.312 488.156 721.174 489.674C742.542 527.326 742.542 572.98 742.542 664.287V679.483C742.542 770.791 742.542 816.445 721.174 854.097C720.312 855.615 719.427 857.119 718.517 858.609C695.958 895.56 656.036 917.707 576.192 962.001L542.666 980.6C467.249 1022.44 429.54 1043.36 388.428 1043.98C386.767 1044.01 385.105 1044.01 383.444 1043.98C342.332 1043.36 304.623 1022.44 229.206 980.6L195.68 962.001C115.836 917.707 75.914 895.56 53.3549 858.609C52.4453 857.119 51.5596 855.615 50.6981 854.097C29.3301 816.445 29.3301 770.791 29.3301 679.483V664.287C29.3301 572.98 29.3301 527.326 50.6981 489.674C51.5596 488.156 52.4453 486.651 53.3549 485.162C75.914 448.211 115.836 426.063 195.68 381.769L229.206 363.17Z" fill="#E6EEEB"/>
<path d="M718.517 485.162L675.842 511.216C669.5 500.828 659.918 490.79 640.472 477.395C620.146 463.394 592.695 448.103 551.937 425.492L518.411 406.893C479.904 385.531 453.956 371.193 432.576 361.803C412.132 352.824 399.244 349.957 387.668 349.781C386.513 349.764 385.359 349.764 384.204 349.781C372.628 349.957 359.74 352.824 339.296 361.803C317.916 371.193 291.968 385.531 253.462 406.893L219.935 425.492C179.177 448.103 151.726 463.394 131.4 477.395C111.954 490.79 102.372 500.829 96.0302 511.216C95.398 512.251 94.7824 513.297 94.1835 514.352C88.1768 524.936 84.0474 538.185 81.7675 561.687C79.3843 586.254 79.3301 617.676 79.3301 664.287V679.483C79.3301 726.094 79.3843 757.516 81.7675 782.083C84.0474 805.585 88.1768 818.834 94.1834 829.418C94.7823 830.474 95.398 831.519 96.0302 832.555C102.372 842.942 111.954 852.98 131.4 866.375C151.726 880.377 179.177 895.667 219.935 918.279L253.461 936.878C291.968 958.239 317.916 972.578 339.296 981.968C359.739 990.946 372.628 993.813 384.203 993.989C384.203 993.989 384.204 993.989 384.204 993.989L383.444 1043.98C385.105 1044.01 386.767 1044.01 388.428 1043.98L718.517 485.162ZM718.517 485.162L675.842 511.216C676.474 512.252 677.09 513.297 677.688 514.352L721.174 489.674L677.689 514.352C683.695 524.936 687.825 538.185 690.104 561.687C692.488 586.254 692.542 617.676 692.542 664.287V679.483C692.542 726.094 692.488 757.516 690.104 782.083C687.825 805.585 683.695 818.834 677.688 829.418C677.09 830.473 676.474 831.519 675.842 832.555C669.5 842.942 659.918 852.98 640.472 866.375C620.146 880.377 592.695 895.667 551.936 918.279L518.41 936.878C479.904 958.24 453.956 972.578 432.576 981.968C412.133 990.946 399.245 993.813 387.669 993.989L718.517 485.162Z" stroke="black" stroke-width="100"/>
</g>
<g filter="url(#filter3_d_27_4)">
<path fill-rule="evenodd" clip-rule="evenodd" d="M1327.37 1266.92C1374.7 1273.69 1406.57 1311.6 1398.56 1351.6L1312.87 1339.35C1398.56 1351.6 1398.56 1351.62 1398.56 1351.64L1398.53 1351.75L1398.5 1351.93L1398.4 1352.37C1398.33 1352.71 1398.25 1353.11 1398.14 1353.59C1397.93 1354.55 1397.65 1355.8 1397.29 1357.31C1396.56 1360.32 1395.52 1364.39 1394.1 1369.3C1391.28 1379.04 1386.88 1392.43 1380.41 1407.49C1368.24 1435.81 1345.42 1477.98 1304.05 1509.99C1257.52 1546 1234.7 1561.26 1208.18 1575.93C1201.44 1579.66 1195.17 1582.99 1188.52 1586.52C1171.16 1595.75 1151.29 1606.3 1114.2 1628.66C1085 1646.26 1058.93 1674.44 1038.97 1701.98C1029.41 1715.17 1022.1 1727.01 1017.27 1735.42C1014.86 1739.6 1013.11 1742.86 1012.02 1744.94C1011.48 1745.97 1011.11 1746.71 1010.91 1747.1L1010.76 1747.41L1010.79 1747.34L1010.81 1747.3M1010.82 1747.27C1010.8 1747.32 1010.77 1747.38 1010.75 1747.43C992.59 1784.88 941.983 1802.88 897.589 1787.63C853.12 1772.35 831.726 1729.5 849.802 1691.92L926.287 1718.19C849.802 1691.92 849.81 1691.9 849.817 1691.89L849.868 1691.78L849.953 1691.6L850.176 1691.15C850.35 1690.79 850.572 1690.35 850.842 1689.81C851.383 1688.73 852.118 1687.28 853.046 1685.51C854.9 1681.97 857.535 1677.09 860.936 1671.18C867.708 1659.41 877.674 1643.26 890.742 1625.23C916.037 1590.34 956.675 1543.16 1013.26 1509.05C1054.97 1483.91 1080.83 1470.18 1098.5 1460.79C1104.05 1457.84 1108.79 1455.32 1112.96 1453.02C1128.23 1444.57 1143.18 1435.28 1186.66 1401.63C1197.58 1393.19 1208.52 1377.12 1217.03 1357.33C1220.9 1348.32 1223.57 1340.19 1225.24 1334.41C1226.07 1331.56 1226.62 1329.38 1226.93 1328.07C1227.09 1327.42 1227.18 1327 1227.22 1326.82C1227.23 1326.8 1227.23 1326.79 1227.23 1326.78C1235.41 1286.95 1280.16 1260.17 1327.37 1266.92" fill="#F2FDFC"/>
<path fill-rule="evenodd" clip-rule="evenodd" d="M553.871 1301.77C508.679 1307.68 478.606 1339.18 486.701 1372.13L568.528 1361.45C486.701 1372.13 486.704 1372.15 486.708 1372.16L486.732 1372.26L486.77 1372.41L486.862 1372.78C486.932 1373.05 487.018 1373.37 487.12 1373.75C487.325 1374.52 487.596 1375.49 487.942 1376.66C488.631 1379 489.618 1382.14 490.954 1385.9C493.603 1393.37 497.731 1403.61 503.799 1415.12C515.222 1436.79 536.696 1469.13 575.527 1493.63C617.957 1520.39 638.913 1531.83 663.281 1542.82C669.461 1545.6 675.197 1548.09 681.255 1550.71C697.028 1557.54 714.981 1565.32 748.615 1581.84C774.394 1594.51 797.47 1614.82 815.223 1634.79C823.719 1644.34 830.199 1652.91 834.474 1658.97C836.597 1661.97 838.138 1664.31 839.074 1665.77C839.541 1666.5 839.855 1667 840.013 1667.26L840.103 1667.4L840.066 1667.34L840.041 1667.3M840.028 1667.28C840.06 1667.33 840.091 1667.38 840.123 1667.44C858.356 1698.06 907.142 1712.18 949.23 1698.98C991.403 1685.75 1010.88 1650.09 992.736 1619.33L916.375 1643.29C992.736 1619.33 992.728 1619.32 992.72 1619.31L992.668 1619.22L992.583 1619.08L992.364 1618.71C992.195 1618.43 991.982 1618.08 991.725 1617.66C991.211 1616.82 990.518 1615.71 989.649 1614.36C987.912 1611.66 985.46 1607.96 982.305 1603.49C976.022 1594.58 966.801 1582.41 954.72 1568.82C931.32 1542.51 893.743 1506.96 841.519 1481.3C803.492 1462.61 779.844 1452.37 763.781 1445.42C758.761 1443.25 754.482 1441.39 750.737 1439.7C737.105 1433.56 723.714 1426.79 684.298 1401.93C675.583 1396.43 666.365 1385.61 658.982 1371.61C655.647 1365.28 653.343 1359.57 651.912 1355.53C651.207 1353.55 650.743 1352.05 650.489 1351.19C650.371 1350.79 650.3 1350.53 650.274 1350.43C641.977 1317.66 598.914 1295.89 553.871 1301.77" fill="#F2FDFC"/>
<path fill-rule="evenodd" clip-rule="evenodd" d="M921.886 779.049C969.529 779.049 1008.15 807.772 1008.15 843.203V1843.85C1008.15 1879.28 969.529 1908 921.886 1908C874.243 1908 835.621 1879.28 835.621 1843.85V843.203C835.621 807.772 874.243 779.049 921.886 779.049Z" fill="#F2FDFC"/>
</g>
<g filter="url(#filter4_d_27_4)">
<path d="M1310.26 850.683C1386.77 807.387 1425.02 785.739 1466.85 785.093C1468.54 785.067 1470.23 785.067 1471.92 785.093C1513.75 785.739 1552 807.387 1628.51 850.683L1670.04 874.189C1748.77 918.743 1788.14 941.02 1810.35 977.76C1811.24 979.242 1812.12 980.738 1812.96 982.247C1834 1019.67 1834 1064.9 1834 1155.37V1191.27C1834 1281.73 1834 1326.96 1812.96 1364.39C1812.12 1365.9 1811.24 1367.39 1810.35 1368.87C1788.14 1405.61 1748.77 1427.89 1670.04 1472.44L1628.51 1495.95C1552 1539.25 1513.75 1560.89 1471.92 1561.54C1470.23 1561.57 1468.54 1561.57 1466.85 1561.54C1425.02 1560.89 1386.77 1539.25 1310.26 1495.95L1268.73 1472.44C1190 1427.89 1150.63 1405.61 1128.42 1368.87C1127.53 1367.39 1126.66 1365.9 1125.81 1364.39C1104.77 1326.96 1104.77 1281.73 1104.77 1191.27V1155.37C1104.77 1064.9 1104.77 1019.67 1125.81 982.247C1126.66 980.738 1127.53 979.242 1128.42 977.76C1150.63 941.02 1190 918.743 1268.73 874.189L1310.26 850.683Z" fill="#F6FAF9"/>
<path d="M1421.99 847.529C1400.28 857.25 1373.95 872.094 1334.89 894.198L1293.35 917.704C1253.16 940.448 1226.1 955.825 1206.07 969.858C1186.9 983.282 1177.46 993.297 1171.21 1003.63C1170.59 1004.66 1169.98 1005.7 1169.39 1006.75C1163.48 1017.27 1159.41 1030.42 1157.17 1053.71C1154.82 1078.06 1154.77 1109.19 1154.77 1155.37V1191.27C1154.77 1237.45 1154.82 1268.57 1157.17 1292.92C1159.41 1316.21 1163.48 1329.36 1169.39 1339.89C1169.98 1340.94 1170.59 1341.98 1171.21 1343.01L1421.99 847.529ZM1421.99 847.529C1442.76 838.232 1455.85 835.269 1467.62 835.087M1421.99 847.529L1467.62 835.087M1467.62 835.087C1468.8 835.069 1469.97 835.069 1471.15 835.087M1467.62 835.087H1471.15M1471.15 835.087C1482.92 835.269 1496.01 838.232 1516.78 847.529M1471.15 835.087L1516.78 847.529M1516.78 847.529C1538.49 857.25 1564.82 872.094 1603.88 894.198M1516.78 847.529L1603.88 894.198M1603.88 894.198L1645.42 917.704M1603.88 894.198L1645.42 917.704M1645.42 917.704C1685.61 940.448 1712.67 955.825 1732.71 969.858M1645.42 917.704L1732.71 969.858M1732.71 969.858C1751.87 983.282 1761.31 993.297 1767.56 1003.63M1732.71 969.858L1767.56 1003.63M1767.56 1003.63C1768.18 1004.66 1768.79 1005.7 1769.38 1006.75M1767.56 1003.63L1769.38 1006.75M1769.38 1006.75C1775.29 1017.27 1779.36 1030.42 1781.6 1053.71M1769.38 1006.75L1781.6 1053.71M1781.6 1053.71C1783.95 1078.06 1784 1109.19 1784 1155.37M1781.6 1053.71L1784 1155.37M1784 1155.37V1191.27M1784 1155.37V1191.27M1784 1191.27C1784 1237.45 1783.95 1268.57 1781.6 1292.92M1784 1191.27L1781.6 1292.92M1781.6 1292.92C1779.36 1316.21 1775.29 1329.36 1769.38 1339.89M1781.6 1292.92L1769.38 1339.89M1769.38 1339.89C1768.79 1340.94 1768.18 1341.98 1767.56 1343.01M1769.38 1339.89L1767.56 1343.01M1767.56 1343.01C1761.31 1353.34 1751.87 1363.35 1732.71 1376.78M1767.56 1343.01L1732.71 1376.78M1732.71 1376.78C1712.67 1390.81 1685.61 1406.18 1645.42 1428.93M1732.71 1376.78L1645.42 1428.93M1645.42 1428.93L1603.88 1452.43M1645.42 1428.93L1603.88 1452.43M1603.88 1452.43C1564.82 1474.54 1538.49 1489.38 1516.78 1499.1M1603.88 1452.43L1516.78 1499.1M1516.78 1499.1C1496.01 1508.4 1482.92 1511.36 1471.15 1511.55M1516.78 1499.1L1471.15 1511.55M1471.15 1511.55C1469.97 1511.56 1468.8 1511.56 1467.63 1511.55M1471.15 1511.55H1467.63M1467.63 1511.55C1455.85 1511.36 1442.76 1508.4 1421.99 1499.1M1467.63 1511.55L1421.99 1499.1M1421.99 1499.1C1400.28 1489.38 1373.95 1474.54 1334.89 1452.43M1421.99 1499.1L1334.89 1452.43M1334.89 1452.43L1293.35 1428.93M1334.89 1452.43L1293.35 1428.93M1293.35 1428.93C1253.16 1406.18 1226.1 1390.81 1206.07 1376.78M1293.35 1428.93L1206.07 1376.78M1206.07 1376.78C1186.9 1363.35 1177.46 1353.34 1171.21 1343.01L1206.07 1376.78Z" stroke="black" stroke-width="100"/>
</g>
<g filter="url(#filter5_d_27_4)">
<path d="M205.492 850.638C281.998 807.342 320.251 785.694 362.081 785.047C363.77 785.021 365.459 785.021 367.148 785.047C408.979 785.694 447.232 807.342 523.738 850.638L565.272 874.143C644.002 918.697 683.366 940.975 705.577 977.715C706.473 979.197 707.345 980.693 708.193 982.202C729.229 1019.63 729.229 1064.86 729.229 1155.32V1191.22C729.229 1281.68 729.229 1326.92 708.193 1364.34C707.345 1365.85 706.473 1367.35 705.577 1368.83C683.366 1405.57 644.002 1427.84 565.272 1472.4L523.738 1495.9C447.232 1539.2 408.979 1560.85 367.148 1561.49C365.459 1561.52 363.77 1561.52 362.081 1561.49C320.251 1560.85 281.998 1539.2 205.492 1495.9L163.957 1472.4C85.2277 1427.84 45.8631 1405.57 23.6525 1368.83C22.7567 1367.35 21.8844 1365.85 21.0359 1364.34C0 1326.92 0 1281.68 0 1191.22V1155.32C0 1064.86 0 1019.63 21.0359 982.202C21.8844 980.693 22.7567 979.197 23.6525 977.715C45.8631 940.975 85.2277 918.697 163.957 874.143L205.492 850.638Z" fill="#E7EFEB"/>
<path d="M317.222 847.484C295.511 857.205 269.177 872.048 230.118 894.153L188.583 917.658C148.392 940.403 121.33 955.779 101.296 969.812C82.1309 983.236 72.6866 993.251 66.4414 1003.58C65.8186 1004.61 65.2122 1005.65 64.6225 1006.7C58.7076 1017.22 54.6429 1030.38 52.3991 1053.67C50.0534 1078.01 50 1109.14 50 1155.32V1191.22C50 1237.4 50.0534 1268.53 52.3991 1292.88C54.6429 1316.17 58.7076 1329.32 64.6225 1339.84C65.2121 1340.89 65.8184 1341.93 66.4413 1342.96L317.222 847.484ZM317.222 847.484C337.987 838.186 351.082 835.223 362.853 835.041M317.222 847.484L362.853 835.041M362.853 835.041C364.028 835.023 365.202 835.023 366.376 835.041M362.853 835.041H366.376M366.376 835.041C378.148 835.223 391.242 838.186 412.007 847.484M366.376 835.041L412.007 847.484M412.007 847.484C433.719 857.205 460.052 872.048 499.112 894.153M412.007 847.484L499.112 894.153M499.112 894.153L540.646 917.658M499.112 894.153L540.646 917.658M540.646 917.658C580.837 940.403 607.899 955.779 627.934 969.812M540.646 917.658L627.934 969.812M627.934 969.812C647.098 983.236 656.543 993.251 662.788 1003.58M627.934 969.812L662.788 1003.58M662.788 1003.58C663.41 1004.61 664.017 1005.65 664.607 1006.7M662.788 1003.58L664.607 1006.7M664.607 1006.7C670.522 1017.22 674.586 1030.38 676.83 1053.67M664.607 1006.7L676.83 1053.67M676.83 1053.67C679.176 1078.01 679.229 1109.14 679.229 1155.32M676.83 1053.67L679.229 1155.32M679.229 1155.32V1191.22M679.229 1155.32V1191.22M679.229 1191.22C679.229 1237.4 679.176 1268.53 676.83 1292.88M679.229 1191.22L676.83 1292.88M676.83 1292.88C674.586 1316.17 670.522 1329.32 664.607 1339.84M676.83 1292.88L664.607 1339.84M664.607 1339.84C664.017 1340.89 663.41 1341.93 662.788 1342.96M664.607 1339.84L662.788 1342.96M662.788 1342.96C656.542 1353.29 647.098 1363.31 627.934 1376.73M662.788 1342.96L627.934 1376.73M627.934 1376.73C607.899 1390.76 580.837 1406.14 540.646 1428.88M627.934 1376.73L540.646 1428.88M540.646 1428.88L499.112 1452.39M540.646 1428.88L499.112 1452.39M499.112 1452.39C460.052 1474.49 433.719 1489.34 412.007 1499.06M499.112 1452.39L412.007 1499.06M412.007 1499.06C391.243 1508.36 378.148 1511.32 366.376 1511.5M412.007 1499.06L366.376 1511.5M366.376 1511.5C365.202 1511.52 364.028 1511.52 362.854 1511.5M366.376 1511.5H362.854M362.854 1511.5C351.082 1511.32 337.987 1508.36 317.222 1499.06M362.854 1511.5L317.222 1499.06M317.222 1499.06C295.511 1489.34 269.177 1474.49 230.118 1452.39M317.222 1499.06L230.118 1452.39M230.118 1452.39L188.583 1428.88M230.118 1452.39L188.583 1428.88M188.583 1428.88C148.392 1406.14 121.33 1390.76 101.296 1376.73M188.583 1428.88L101.296 1376.73M101.296 1376.73C82.1312 1363.31 72.6869 1353.29 66.4416 1342.96L101.296 1376.73Z" stroke="black" stroke-width="100"/>
</g>
<g filter="url(#filter6_d_27_4)">
<path d="M766.011 653.042C840.909 611.886 878.357 591.308 919.129 590.693C920.777 590.669 922.425 590.669 924.073 590.693C964.844 591.308 1002.29 611.886 1077.19 653.042L1156.79 696.78C1237.16 740.946 1277.35 763.029 1300.07 800.079C1300.99 801.573 1301.88 803.081 1302.75 804.603C1324.28 842.362 1324.28 888.217 1324.28 979.928V1040.24C1324.28 1131.95 1324.28 1177.81 1302.75 1215.57C1301.88 1217.09 1300.99 1218.6 1300.07 1220.09C1277.35 1257.14 1237.16 1279.23 1156.79 1323.39L1077.19 1367.13C1002.29 1408.29 964.844 1428.86 924.073 1429.48C922.425 1429.5 920.777 1429.5 919.129 1429.48C878.357 1428.86 840.909 1408.29 766.011 1367.13L686.416 1323.39C606.041 1279.23 565.853 1257.14 543.128 1220.09C542.212 1218.6 541.319 1217.09 540.452 1215.57C518.925 1177.81 518.925 1131.95 518.925 1040.24V979.928C518.925 888.217 518.925 842.362 540.452 804.603C541.319 803.081 542.212 801.573 543.128 800.079C565.853 763.029 606.041 740.946 686.416 696.78L766.011 653.042Z" fill="#F2FAF8"/>
<path d="M1257.45 1193.95L1257.45 1193.95C1251.07 1204.36 1241.42 1214.41 1221.84 1227.79C1201.37 1241.78 1173.74 1257.03 1132.71 1279.57L1053.11 1323.31C1014.87 1344.32 989.105 1358.42 967.883 1367.66C947.591 1376.49 934.802 1379.31 923.319 1379.48C922.174 1379.5 921.028 1379.5 919.882 1379.48C908.4 1379.31 895.61 1376.49 875.318 1367.66C854.097 1358.42 828.332 1344.32 790.091 1323.31L710.495 1279.57C669.466 1257.03 641.829 1241.78 621.364 1227.79C601.784 1214.41 592.136 1204.36 585.749 1193.95L543.128 1220.09L585.749 1193.95C585.112 1192.91 584.492 1191.86 583.889 1190.81L540.452 1215.57L583.889 1190.81C577.838 1180.19 573.678 1166.9 571.381 1143.29C568.98 1118.62 568.925 1087.06 568.925 1040.24V979.928C568.925 933.112 568.98 901.548 571.381 876.877C573.678 853.274 577.838 839.979 583.889 829.366L542.925 806.013L583.889 829.366C584.492 828.308 585.112 827.26 585.749 826.222C592.136 815.808 601.784 805.76 621.364 792.379C641.829 778.394 669.466 763.146 710.495 740.6L790.09 696.862C828.332 675.848 854.097 661.747 875.318 652.512C895.61 643.682 908.4 640.861 919.882 640.688C921.028 640.67 922.174 640.67 923.319 640.688C934.802 640.861 947.591 643.682 967.883 652.512C989.105 661.747 1014.87 675.848 1053.11 696.862L1132.71 740.6C1173.74 763.145 1201.37 778.394 1221.84 792.379C1241.42 805.76 1251.07 815.808 1257.45 826.222L1257.45 826.223C1258.09 827.26 1258.71 828.308 1259.31 829.366L1259.31 829.366C1265.36 839.979 1269.52 853.274 1271.82 876.877C1274.22 901.548 1274.28 933.112 1274.28 979.928V1040.24C1274.28 1087.06 1274.22 1118.62 1271.82 1143.29C1269.52 1166.9 1265.36 1180.19 1259.31 1190.81L1259.31 1190.81C1258.71 1191.86 1258.09 1192.91 1257.45 1193.95Z" stroke="black" stroke-width="100"/>
</g>
<defs>
<filter id="filter0_d_27_4" x="490.561" y="21.7344" width="948.184" height="958.353" filterUnits="userSpaceOnUse" color-interpolation-filters="sRGB">
<feFlood flood-opacity="0" result="BackgroundImageFix"/>
<feColorMatrix in="SourceAlpha" type="matrix" values="0 0 0 0 0 0 0 0 0 0 0 0 0 0 0 0 0 0 127 0" result="hardAlpha"/>
<feOffset dx="50" dy="50"/>
<feGaussianBlur stdDeviation="25"/>
<feComposite in2="hardAlpha" operator="out"/>
<feColorMatrix type="matrix" values="0 0 0 0 0 0 0 0 0 0 0 0 0 0 0 0 0 0 0.25 0"/>
<feBlend mode="normal" in2="BackgroundImageFix" result="effect1_dropShadow_27_4"/>
<feBlend mode="normal" in="SourceGraphic" in2="effect1_dropShadow_27_4" result="shape"/>
</filter>
<filter id="filter1_d_27_4" x="1043.23" y="299.768" width="813.211" height="844.234" filterUnits="userSpaceOnUse" color-interpolation-filters="sRGB">
<feFlood flood-opacity="0" result="BackgroundImageFix"/>
<feColorMatrix in="SourceAlpha" type="matrix" values="0 0 0 0 0 0 0 0 0 0 0 0 0 0 0 0 0 0 127 0" result="hardAlpha"/>
<feOffset dx="50" dy="50"/>
<feGaussianBlur stdDeviation="25"/>
<feComposite in2="hardAlpha" operator="out"/>
<feColorMatrix type="matrix" values="0 0 0 0 0 0 0 0 0 0 0 0 0 0 0 0 0 0 0.25 0"/>
<feBlend mode="normal" in2="BackgroundImageFix" result="effect1_dropShadow_27_4"/>
<feBlend mode="normal" in="SourceGraphic" in2="effect1_dropShadow_27_4" result="shape"/>
</filter>
<filter id="filter2_d_27_4" x="29.3301" y="299.768" width="813.211" height="844.234" filterUnits="userSpaceOnUse" color-interpolation-filters="sRGB">
<feFlood flood-opacity="0" result="BackgroundImageFix"/>
<feColorMatrix in="SourceAlpha" type="matrix" values="0 0 0 0 0 0 0 0 0 0 0 0 0 0 0 0 0 0 127 0" result="hardAlpha"/>
<feOffset dx="50" dy="50"/>
<feGaussianBlur stdDeviation="25"/>
<feComposite in2="hardAlpha" operator="out"/>
<feColorMatrix type="matrix" values="0 0 0 0 0 0 0 0 0 0 0 0 0 0 0 0 0 0 0.25 0"/>
<feBlend mode="normal" in2="BackgroundImageFix" result="effect1_dropShadow_27_4"/>
<feBlend mode="normal" in="SourceGraphic" in2="effect1_dropShadow_27_4" result="shape"/>
</filter>
<filter id="filter3_d_27_4" x="485.385" y="779.049" width="1014.41" height="1228.95" filterUnits="userSpaceOnUse" color-interpolation-filters="sRGB">
<feFlood flood-opacity="0" result="BackgroundImageFix"/>
<feColorMatrix in="SourceAlpha" type="matrix" values="0 0 0 0 0 0 0 0 0 0 0 0 0 0 0 0 0 0 127 0" result="hardAlpha"/>
<feOffset dx="50" dy="50"/>
<feGaussianBlur stdDeviation="25"/>
<feComposite in2="hardAlpha" operator="out"/>
<feColorMatrix type="matrix" values="0 0 0 0 0 0 0 0 0 0 0 0 0 0 0 0 0 0 0.25 0"/>
<feBlend mode="normal" in2="BackgroundImageFix" result="effect1_dropShadow_27_4"/>
<feBlend mode="normal" in="SourceGraphic" in2="effect1_dropShadow_27_4" result="shape"/>
</filter>
<filter id="filter4_d_27_4" x="1104.77" y="785.073" width="829.229" height="876.487" filterUnits="userSpaceOnUse" color-interpolation-filters="sRGB">
<feFlood flood-opacity="0" result="BackgroundImageFix"/>
<feColorMatrix in="SourceAlpha" type="matrix" values="0 0 0 0 0 0 0 0 0 0 0 0 0 0 0 0 0 0 127 0" result="hardAlpha"/>
<feOffset dx="50" dy="50"/>
<feGaussianBlur stdDeviation="25"/>
<feComposite in2="hardAlpha" operator="out"/>
<feColorMatrix type="matrix" values="0 0 0 0 0 0 0 0 0 0 0 0 0 0 0 0 0 0 0.25 0"/>
<feBlend mode="normal" in2="BackgroundImageFix" result="effect1_dropShadow_27_4"/>
<feBlend mode="normal" in="SourceGraphic" in2="effect1_dropShadow_27_4" result="shape"/>
</filter>
<filter id="filter5_d_27_4" x="0" y="785.028" width="829.229" height="876.487" filterUnits="userSpaceOnUse" color-interpolation-filters="sRGB">
<feFlood flood-opacity="0" result="BackgroundImageFix"/>
<feColorMatrix in="SourceAlpha" type="matrix" values="0 0 0 0 0 0 0 0 0 0 0 0 0 0 0 0 0 0 127 0" result="hardAlpha"/>
<feOffset dx="50" dy="50"/>
<feGaussianBlur stdDeviation="25"/>
<feComposite in2="hardAlpha" operator="out"/>
<feColorMatrix type="matrix" values="0 0 0 0 0 0 0 0 0 0 0 0 0 0 0 0 0 0 0.25 0"/>
<feBlend mode="normal" in2="BackgroundImageFix" result="effect1_dropShadow_27_4"/>
<feBlend mode="normal" in="SourceGraphic" in2="effect1_dropShadow_27_4" result="shape"/>
</filter>
<filter id="filter6_d_27_4" x="518.926" y="590.675" width="905.352" height="938.822" filterUnits="userSpaceOnUse" color-interpolation-filters="sRGB">
<feFlood flood-opacity="0" result="BackgroundImageFix"/>
<feColorMatrix in="SourceAlpha" type="matrix" values="0 0 0 0 0 0 0 0 0 0 0 0 0 0 0 0 0 0 127 0" result="hardAlpha"/>
<feOffset dx="50" dy="50"/>
<feGaussianBlur stdDeviation="25"/>
<feComposite in2="hardAlpha" operator="out"/>
<feColorMatrix type="matrix" values="0 0 0 0 0 0 0 0 0 0 0 0 0 0 0 0 0 0 0.25 0"/>
<feBlend mode="normal" in2="BackgroundImageFix" result="effect1_dropShadow_27_4"/>
<feBlend mode="normal" in="SourceGraphic" in2="effect1_dropShadow_27_4" result="shape"/>
</filter>
</defs>
</svg>
