<svg width="1956" height="2025" viewBox="0 0 1956 2025" fill="none" xmlns="http://www.w3.org/2000/svg">
<path d="M1147.58 120.452L1205.89 151.296C1256.62 178.136 1293.01 197.418 1320.4 215.557C1347.33 233.384 1363.78 248.991 1375.37 267.553C1376.37 269.153 1377.35 270.769 1378.29 272.401C1389.26 291.296 1395.37 313.276 1398.55 345.778C1401.77 378.82 1401.8 420.507 1401.8 478.561C1401.8 536.615 1401.77 578.302 1398.55 611.344C1395.37 643.846 1389.26 665.826 1378.29 684.721C1377.35 686.353 1376.37 687.969 1375.37 689.569C1363.78 708.131 1347.33 723.738 1320.4 741.565C1293.01 759.704 1256.62 778.986 1205.89 805.826L1147.58 836.67C1102.77 860.378 1070.64 877.346 1043.75 888.626C1017.32 899.71 997.61 904.555 978.037 904.841C976.344 904.866 974.651 904.866 972.958 904.841C953.385 904.555 933.671 899.71 907.247 888.626C880.351 877.346 848.227 860.378 803.413 836.67L745.11 805.826C694.374 778.986 657.989 759.704 630.593 741.565C603.669 723.738 587.216 708.131 575.621 689.569C574.621 687.969 573.648 686.353 572.701 684.721C561.735 665.826 555.622 643.846 552.449 611.344C549.223 578.302 549.194 536.615 549.194 478.561C549.194 420.507 549.223 378.82 552.449 345.778C555.622 313.276 561.735 291.296 572.701 272.401C573.648 270.769 574.621 269.153 575.621 267.553C587.216 248.991 603.669 233.384 630.593 215.557C657.989 197.418 694.374 178.136 745.11 151.296L803.413 120.452C848.226 96.7439 880.351 79.7765 907.247 68.4955C933.671 57.4125 953.385 52.5669 972.958 52.2812C974.651 52.2564 976.344 52.2564 978.037 52.2812C997.61 52.5669 1017.32 57.4125 1043.75 68.4955C1070.64 79.7764 1102.77 96.7439 1147.58 120.452Z" fill="white" stroke="#0EB08A" stroke-width="52"/>
<path d="M1664.21 417.397L1676.91 424.409C1757.22 468.748 1790.26 487.584 1811.68 515.7C1819.99 526.598 1826.98 538.439 1832.5 550.977C1846.76 583.322 1847.29 621.345 1847.29 713.086C1847.29 804.826 1846.76 842.849 1832.5 875.195C1826.98 887.732 1819.99 899.573 1811.68 910.471C1790.26 938.587 1757.22 957.423 1676.91 1001.76L1664.21 1008.77C1576.82 1057.02 1540.38 1076.42 1501.59 1078.34C1495.84 1078.63 1490.08 1078.63 1484.33 1078.34C1445.54 1076.42 1409.1 1057.02 1321.71 1008.77L1309.01 1001.76C1228.7 957.423 1195.66 938.587 1174.24 910.471C1165.93 899.573 1158.94 887.732 1153.42 875.195C1139.16 842.849 1138.63 804.826 1138.63 713.086C1138.63 621.345 1139.16 583.322 1153.42 550.977C1158.94 538.439 1165.93 526.598 1174.24 515.7C1195.66 487.584 1228.7 468.748 1309.01 424.409L1321.71 417.397C1409.1 369.156 1445.54 349.753 1484.33 347.827C1490.08 347.542 1495.84 347.542 1501.59 347.827C1540.38 349.753 1576.82 369.156 1664.21 417.397Z" fill="white" stroke="#0EB08A" stroke-width="52"/>
<path d="M582.856 417.397L595.558 424.409C675.873 468.748 708.907 487.584 730.332 515.7C738.637 526.598 745.626 538.439 751.153 550.977C765.411 583.322 765.937 621.345 765.937 713.086C765.937 804.826 765.411 842.849 751.153 875.195C745.626 887.732 738.637 899.573 730.332 910.471C708.906 938.587 675.873 957.423 595.558 1001.76L582.856 1008.77C495.471 1057.02 459.032 1076.42 420.239 1078.34C414.489 1078.63 408.729 1078.63 402.979 1078.34C364.186 1076.42 327.747 1057.02 240.362 1008.77L227.66 1001.76C147.345 957.423 114.311 938.587 92.886 910.471C84.581 899.573 77.5924 887.732 72.0654 875.195C57.8065 842.849 57.2812 804.826 57.2812 713.086C57.2812 621.345 57.8065 583.322 72.0654 550.977C77.5924 538.439 84.581 526.598 92.886 515.7C114.311 487.584 147.345 468.748 227.66 424.409L240.362 417.397C327.747 369.156 364.186 349.753 402.979 347.827C408.729 347.542 414.489 347.542 420.239 347.827C459.032 349.753 495.471 369.156 582.856 417.397Z" fill="white" stroke="#0EB08A" stroke-width="52"/>
<path fill-rule="evenodd" clip-rule="evenodd" d="M1415.67 1344.61C1466.15 1351.79 1500.14 1392.03 1491.6 1434.48L1400.2 1421.47C1491.6 1434.48 1491.59 1434.5 1491.59 1434.52L1491.57 1434.64L1491.53 1434.83L1491.43 1435.3C1491.35 1435.66 1491.26 1436.09 1491.15 1436.6C1490.93 1437.61 1490.62 1438.94 1490.24 1440.54C1489.47 1443.73 1488.35 1448.06 1486.84 1453.26C1483.83 1463.6 1479.14 1477.82 1472.24 1493.79C1459.26 1523.85 1434.92 1568.61 1390.8 1602.58C1341.17 1640.8 1316.84 1656.99 1288.55 1672.57C1281.37 1676.53 1274.67 1680.06 1267.59 1683.81C1249.07 1693.6 1227.87 1704.8 1188.31 1728.53C1157.17 1747.21 1129.37 1777.12 1108.08 1806.35C1097.89 1820.35 1090.1 1832.91 1084.94 1841.84C1082.37 1846.27 1080.5 1849.74 1079.34 1851.94C1078.77 1853.04 1078.37 1853.81 1078.16 1854.24L1077.99 1854.56L1078.03 1854.49L1078.05 1854.44M1078.07 1854.41C1078.04 1854.47 1078.01 1854.53 1077.98 1854.58C1058.62 1894.33 1004.65 1913.43 957.299 1897.25C909.873 1881.03 887.055 1835.55 906.334 1795.67L987.907 1823.55C906.334 1795.66 906.342 1795.65 906.35 1795.63L906.404 1795.52L906.494 1795.33L906.733 1794.85C906.918 1794.47 907.155 1794 907.443 1793.43C908.02 1792.28 908.804 1790.75 909.793 1788.87C911.771 1785.11 914.581 1779.93 918.208 1773.66C925.431 1761.16 936.06 1744.03 949.997 1724.89C976.974 1687.86 1020.32 1637.78 1080.67 1601.59C1125.15 1574.91 1152.73 1560.33 1171.58 1550.37C1177.5 1547.24 1182.55 1544.57 1187 1542.12C1203.28 1533.15 1219.23 1523.29 1265.6 1487.58C1277.25 1478.62 1288.91 1461.57 1297.99 1440.56C1302.12 1431 1304.97 1422.37 1306.75 1416.24C1307.63 1413.21 1308.22 1410.9 1308.55 1409.51C1308.72 1408.82 1308.82 1408.37 1308.86 1408.18C1308.86 1408.16 1308.87 1408.15 1308.87 1408.13C1317.59 1365.86 1365.32 1337.44 1415.67 1344.61" fill="white"/>
<path fill-rule="evenodd" clip-rule="evenodd" d="M590.717 1381.6C542.519 1387.87 510.446 1421.3 519.079 1456.28L606.35 1444.93C519.079 1456.28 519.083 1456.29 519.087 1456.31L519.113 1456.41L519.153 1456.57L519.252 1456.96C519.326 1457.24 519.417 1457.59 519.526 1458C519.744 1458.8 520.034 1459.84 520.403 1461.08C521.137 1463.56 522.191 1466.89 523.615 1470.89C526.441 1478.81 530.844 1489.68 537.315 1501.9C549.498 1524.89 572.4 1559.22 613.815 1585.22C659.067 1613.62 681.417 1625.76 707.406 1637.42C713.996 1640.38 720.114 1643.02 726.575 1645.8C743.397 1653.05 762.545 1661.3 798.416 1678.84C825.91 1692.29 850.521 1713.84 869.455 1735.03C878.516 1745.17 885.428 1754.27 889.987 1760.7C892.251 1763.89 893.894 1766.37 894.893 1767.91C895.391 1768.69 895.726 1769.22 895.895 1769.5L895.99 1769.65L895.95 1769.58L895.925 1769.54M895.91 1769.52C895.944 1769.57 895.978 1769.63 896.012 1769.69C915.457 1802.19 967.489 1817.18 1012.38 1803.16C1057.36 1789.12 1078.13 1751.27 1058.78 1718.63L977.335 1744.06C1058.78 1718.63 1058.77 1718.62 1058.76 1718.6L1058.7 1718.51L1058.61 1718.36L1058.38 1717.97C1058.2 1717.67 1057.97 1717.3 1057.7 1716.86C1057.15 1715.97 1056.41 1714.79 1055.48 1713.36C1053.63 1710.48 1051.02 1706.56 1047.65 1701.81C1040.95 1692.37 1031.12 1679.44 1018.23 1665.02C993.276 1637.1 953.198 1599.37 897.5 1572.13C856.944 1552.3 831.723 1541.43 814.591 1534.05C809.237 1531.75 804.674 1529.78 800.679 1527.99C786.14 1521.46 771.859 1514.29 729.821 1487.9C720.526 1482.06 710.695 1470.58 702.821 1455.72C699.264 1449 696.807 1442.94 695.281 1438.66C694.529 1436.55 694.033 1434.96 693.763 1434.04C693.637 1433.62 693.561 1433.34 693.534 1433.24C684.684 1398.46 638.757 1375.36 590.717 1381.6" fill="white"/>
<path fill-rule="evenodd" clip-rule="evenodd" d="M983.214 826.82C1034.03 826.82 1075.22 857.304 1075.22 894.908V1956.91C1075.22 1994.52 1034.03 2025 983.214 2025C932.401 2025 891.21 1994.52 891.21 1956.91V894.908C891.21 857.304 932.401 826.82 983.214 826.82Z" fill="white"/>
<path d="M1745.19 937.39L1752.43 941.465C1796.12 966.074 1827.45 983.744 1851.26 1000.02C1874.68 1016.03 1889.28 1029.69 1900 1045.51C1904.37 1051.94 1908.3 1058.66 1911.76 1065.62C1920.28 1082.73 1925.02 1102.16 1927.48 1130.41C1929.98 1159.14 1930 1195.11 1930 1245.27C1930 1295.42 1929.98 1331.39 1927.48 1360.12C1925.02 1388.38 1920.28 1407.81 1911.76 1424.91C1908.3 1431.87 1904.37 1438.59 1900 1445.03C1889.28 1460.84 1874.68 1474.5 1851.26 1490.51C1827.45 1506.79 1796.12 1524.46 1752.43 1549.07L1745.19 1553.14C1699.54 1578.85 1666.8 1597.26 1639.34 1609.57C1612.35 1621.68 1592.18 1627.08 1572.1 1627.65C1568.79 1627.74 1565.47 1627.74 1562.17 1627.65C1542.08 1627.08 1521.91 1621.68 1494.92 1609.57C1467.46 1597.26 1434.72 1578.85 1389.07 1553.14L1381.84 1549.07C1338.14 1524.46 1306.81 1506.79 1283 1490.51C1259.58 1474.5 1244.98 1460.84 1234.26 1445.03C1229.89 1438.59 1225.96 1431.87 1222.5 1424.91C1213.98 1407.81 1209.24 1388.38 1206.78 1360.12C1204.28 1331.39 1204.26 1295.42 1204.26 1245.27C1204.26 1195.11 1204.28 1159.14 1206.78 1130.41C1209.24 1102.16 1213.98 1082.73 1222.5 1065.62C1225.96 1058.66 1229.89 1051.94 1234.26 1045.51C1244.98 1029.69 1259.58 1016.03 1283 1000.02C1306.81 983.744 1338.14 966.074 1381.84 941.465L1389.07 937.39C1434.72 911.683 1467.46 893.273 1494.92 880.956C1521.91 868.851 1542.08 863.454 1562.17 862.88C1565.47 862.786 1568.79 862.786 1572.1 862.88C1592.18 863.454 1612.35 868.851 1639.34 880.956C1666.8 893.273 1699.54 911.683 1745.19 937.39Z" fill="white" stroke="#0EB08A" stroke-width="52"/>
<path d="M566.928 937.341L574.164 941.416C617.863 966.025 649.193 983.695 673.002 999.972C696.416 1015.98 711.019 1029.65 721.742 1045.46C726.107 1051.89 730.036 1058.61 733.501 1065.57C742.016 1082.68 746.758 1102.11 749.216 1130.36C751.716 1159.09 751.739 1195.06 751.739 1245.22C751.739 1295.37 751.716 1331.34 749.216 1360.07C746.758 1388.33 742.016 1407.76 733.501 1424.86C730.036 1431.82 726.107 1438.54 721.742 1444.98C711.019 1460.79 696.416 1474.45 673.002 1490.46C649.193 1506.74 617.862 1524.41 574.163 1549.02L566.928 1553.09C521.28 1578.8 488.539 1597.21 461.079 1609.53C434.091 1621.63 413.919 1627.03 393.835 1627.6C390.525 1627.7 387.213 1627.7 383.903 1627.6C363.82 1627.03 343.647 1621.63 316.66 1609.53C289.2 1597.21 256.459 1578.8 210.81 1553.09L203.575 1549.02C159.876 1524.41 128.546 1506.74 104.737 1490.46C81.323 1474.45 66.72 1460.79 55.9963 1444.98C51.6315 1438.54 47.703 1431.82 44.2372 1424.86C35.7224 1407.76 30.9808 1388.33 28.5224 1360.07C26.0226 1331.34 26 1295.37 26 1245.22C26 1195.06 26.0226 1159.09 28.5224 1130.36C30.9808 1102.11 35.7224 1082.68 44.2372 1065.57C47.703 1058.61 51.6315 1051.89 55.9963 1045.46C66.72 1029.65 81.323 1015.98 104.737 999.972C128.546 983.695 159.876 966.025 203.575 941.416L210.81 937.341C256.459 911.634 289.2 893.224 316.66 880.907C343.647 868.802 363.82 863.405 383.903 862.832C387.213 862.737 390.525 862.737 393.835 862.832C413.919 863.405 434.091 868.802 461.079 880.907C488.539 893.224 521.28 911.634 566.928 937.341Z" fill="white" stroke="#0EB08A" stroke-width="52"/>
<path d="M1159.46 728.526L1194.93 747.917C1244.54 775.047 1280.12 794.533 1306.89 812.757C1333.21 830.666 1349.28 846.239 1360.59 864.637C1361.57 866.223 1362.52 867.826 1363.44 869.443C1374.15 888.173 1380.1 909.834 1383.2 941.743C1386.34 974.194 1386.37 1015.07 1386.37 1072.02C1386.37 1128.98 1386.34 1169.86 1383.2 1202.31C1380.1 1234.21 1374.15 1255.88 1363.44 1274.61C1362.52 1276.22 1361.57 1277.83 1360.59 1279.41C1349.28 1297.81 1333.21 1313.38 1306.89 1331.29C1280.12 1349.52 1244.54 1369 1194.93 1396.13L1159.46 1415.52C1113.55 1440.63 1080.62 1458.61 1053.03 1470.56C1025.91 1482.3 1005.66 1487.43 985.519 1487.73C983.778 1487.76 982.036 1487.76 980.295 1487.73C960.15 1487.43 939.9 1482.3 912.788 1470.56C885.193 1458.61 852.268 1440.63 806.35 1415.52L770.888 1396.13C721.274 1369 685.699 1349.52 658.922 1331.29C632.607 1313.38 616.532 1297.81 605.22 1279.41C604.244 1277.83 603.294 1276.22 602.37 1274.61C591.667 1255.88 585.71 1234.21 582.618 1202.31C579.473 1169.86 579.445 1128.98 579.445 1072.02C579.445 1015.07 579.473 974.194 582.618 941.743C585.71 909.834 591.667 888.173 602.37 869.443C603.294 867.826 604.244 866.223 605.22 864.637C616.532 846.239 632.607 830.666 658.922 812.757C685.699 794.533 721.274 775.047 770.888 747.917L806.35 728.526C852.268 703.417 885.193 685.442 912.788 673.49C939.9 661.748 960.15 656.618 980.295 656.316C982.036 656.29 983.778 656.29 985.519 656.316C1005.66 656.618 1025.91 661.748 1053.03 673.49C1080.62 685.442 1113.55 703.417 1159.46 728.526Z" fill="white" stroke="#0EB08A" stroke-width="52"/>
</svg>
