<?xml version="1.0" encoding="utf-8"?>
<!-- Generator: Adobe Illustrator 22.1.0, SVG Export Plug-In . SVG Version: 6.00 Build 0)  -->
<svg version="1.1" id="Layer_1" xmlns="http://www.w3.org/2000/svg" xmlns:xlink="http://www.w3.org/1999/xlink" x="0px" y="0px"
	 viewBox="0 0 200 200" style="enable-background:new 0 0 200 200;" xml:space="preserve">
<style type="text/css">
	.st0{fill:#E01E5A;}
	.st1{fill:#36C5F0;}
	.st2{fill:#2EB67D;}
	.st3{fill:#ECB22E;}
</style>
<g>
	<g>
		<g>
			<path class="st0" d="M42,126.4c0,11.6-9.4,21-21,21s-21-9.4-21-21c0-11.6,9.4-21,21-21h21V126.4z"/>
			<path class="st0" d="M52.6,126.4c0-11.6,9.4-21,21-21s21,9.4,21,21V179c0,11.6-9.4,21-21,21s-21-9.4-21-21
				C52.6,179,52.6,126.4,52.6,126.4z"/>
		</g>
		<g>
			<path class="st1" d="M73.6,42c-11.6,0-21-9.4-21-21s9.4-21,21-21s21,9.4,21,21v21H73.6z"/>
			<path class="st1" d="M73.6,52.6c11.6,0,21,9.4,21,21s-9.4,21-21,21H21c-11.6,0-21-9.4-21-21s9.4-21,21-21
				C21,52.6,73.6,52.6,73.6,52.6z"/>
		</g>
		<g>
			<path class="st2" d="M158,73.6c0-11.6,9.4-21,21-21c11.6,0,21,9.4,21,21s-9.4,21-21,21h-21V73.6z"/>
			<path class="st2" d="M147.4,73.6c0,11.6-9.4,21-21,21c-11.6,0-21-9.4-21-21V21c0-11.6,9.4-21,21-21c11.6,0,21,9.4,21,21V73.6z"/>
		</g>
		<g>
			<path class="st3" d="M126.4,158c11.6,0,21,9.4,21,21c0,11.6-9.4,21-21,21c-11.6,0-21-9.4-21-21v-21H126.4z"/>
			<path class="st3" d="M126.4,147.4c-11.6,0-21-9.4-21-21c0-11.6,9.4-21,21-21H179c11.6,0,21,9.4,21,21c0,11.6-9.4,21-21,21H126.4z
				"/>
		</g>
	</g>
</g>
</svg>
