
<svg width="450" height="504" viewBox="0 0 450 504" fill="none" xmlns="http://www.w3.org/2000/svg">
<path fill-rule="evenodd" clip-rule="evenodd" d="M293.111 242.447C303.133 244.143 309.882 253.642 308.186 263.664L290.04 260.593C308.186 263.664 308.186 263.668 308.185 263.672L308.18 263.701L308.172 263.746L308.153 263.857C308.138 263.94 308.119 264.043 308.097 264.163C308.053 264.403 307.993 264.715 307.916 265.093C307.763 265.847 307.542 266.868 307.241 268.097C306.645 270.537 305.713 273.893 304.343 277.665C301.766 284.76 296.934 295.326 288.174 303.347C278.321 312.368 273.489 316.191 267.872 319.868C266.447 320.802 265.118 321.637 263.711 322.521C260.034 324.832 255.826 327.477 247.972 333.078C241.79 337.488 236.27 344.548 232.043 351.448C230.018 354.753 228.472 357.719 227.448 359.826C226.939 360.873 226.567 361.691 226.337 362.21C226.222 362.47 226.143 362.654 226.101 362.753L226.069 362.83L226.076 362.813L226.081 362.802M226.083 362.795C226.078 362.808 226.072 362.822 226.067 362.835C222.223 372.219 211.507 376.728 202.106 372.906C192.69 369.079 188.16 358.343 191.988 348.926L208.183 355.51C191.988 348.926 191.989 348.923 191.991 348.919L192.002 348.892L192.02 348.848L192.067 348.734C192.104 348.645 192.151 348.533 192.208 348.398C192.322 348.127 192.478 347.765 192.674 347.321C193.067 346.434 193.625 345.212 194.345 343.731C195.779 340.781 197.889 336.736 200.657 332.22C206.013 323.477 214.618 311.656 226.6 303.111C235.431 296.813 240.907 293.371 244.649 291.02C245.824 290.281 246.828 289.65 247.712 289.072C250.944 286.956 254.11 284.629 263.317 276.199C265.629 274.082 267.945 270.058 269.747 265.098C270.566 262.841 271.132 260.803 271.486 259.356C271.661 258.642 271.778 258.096 271.844 257.769C271.877 257.606 271.897 257.499 271.905 257.455C271.906 257.451 271.907 257.447 271.907 257.444C271.907 257.444 271.907 257.444 271.907 257.444C273.64 247.465 283.115 240.755 293.111 242.447" fill="white"/>
<path fill-rule="evenodd" clip-rule="evenodd" d="M128.782 199.69C118.777 201.482 112.119 211.046 113.911 221.051L132.027 217.806C113.911 221.051 113.912 221.055 113.912 221.06L113.918 221.09L113.926 221.135L113.947 221.246C113.962 221.328 113.981 221.427 114.004 221.543C114.049 221.774 114.109 222.07 114.186 222.426C114.338 223.135 114.557 224.088 114.852 225.231C115.439 227.498 116.353 230.607 117.696 234.101C120.225 240.679 124.979 250.498 133.576 257.935C142.97 266.06 147.609 269.532 153.004 272.869C154.372 273.715 155.642 274.469 156.983 275.266C160.475 277.339 164.45 279.7 171.896 284.717C177.603 288.563 182.712 294.729 186.643 300.79C188.524 303.691 189.958 306.292 190.905 308.131C191.375 309.044 191.716 309.753 191.923 310.196C192.027 310.417 192.096 310.57 192.131 310.648L192.151 310.692L192.143 310.673L192.137 310.661M192.134 310.654C192.141 310.67 192.148 310.687 192.155 310.703C196.192 320.001 206.993 324.288 216.311 320.278C225.647 316.261 229.96 305.436 225.942 296.099L209.037 303.373C225.942 296.099 225.941 296.095 225.939 296.091L225.927 296.064L225.909 296.021L225.86 295.91C225.823 295.825 225.776 295.718 225.719 295.591C225.605 295.337 225.451 295 225.259 294.589C224.874 293.768 224.332 292.645 223.633 291.288C222.242 288.585 220.201 284.888 217.526 280.764C212.346 272.775 204.026 261.982 192.464 254.192C184.046 248.519 178.81 245.411 175.254 243.3C174.142 242.64 173.195 242.077 172.366 241.565C169.348 239.698 166.383 237.645 157.657 230.097C155.728 228.428 153.687 225.142 152.052 220.891C151.314 218.971 150.804 217.235 150.487 216.011C150.331 215.407 150.228 214.953 150.172 214.692C150.146 214.569 150.13 214.492 150.124 214.463C148.287 204.512 138.754 197.904 128.782 199.69" fill="white"/>
<path fill-rule="evenodd" clip-rule="evenodd" d="M208.467 179.437C218.631 179.437 226.871 187.677 226.871 197.841V484.899C226.871 495.063 218.631 503.303 208.467 503.303C198.302 503.303 190.063 495.063 190.063 484.899V197.841C190.063 187.677 198.302 179.437 208.467 179.437Z" fill="white"/>
<circle cx="53.3805" cy="164.802" r="45.3544" fill="white"/>
<circle cx="176.421" cy="77.6863" r="77.6863" fill="white"/>
<circle cx="285.46" cy="184.742" r="34.1281" fill="white"/>
<circle cx="323.052" cy="93.0297" r="41.3129" fill="white"/>
<circle cx="362.778" cy="313.438" r="41.3129" fill="white"/>
<path d="M105.079 286.364C105.079 315.38 81.5559 338.903 52.5393 338.903C23.5226 338.903 0 315.38 0 286.364C0 257.347 23.5226 233.825 52.5393 233.825C81.5559 233.825 105.079 257.347 105.079 286.364Z" fill="white"/>
<path d="M450 202.446C450 231.71 426.277 255.434 397.012 255.434C367.747 255.434 344.024 231.71 344.024 202.446C344.024 173.181 367.747 149.458 397.012 149.458C426.277 149.458 450 173.181 450 202.446Z" fill="white"/>
<path d="M165.591 329.371C165.591 342.268 155.137 352.722 142.24 352.722C129.344 352.722 118.89 342.268 118.89 329.371C118.89 316.475 129.344 306.021 142.24 306.021C155.137 306.021 165.591 316.475 165.591 329.371Z" fill="white"/>
</svg>
